<svg width="2433" height="903" viewBox="0 0 2433 903" fill="none" xmlns="http://www.w3.org/2000/svg">
<path d="M192 301.647H235.293V206.98H294.892V301.647H351.961V352.211H294.892V450.811C294.892 463.171 296.954 472.441 301.077 478.621C305.387 484.801 311.479 487.891 319.35 487.891C325.91 487.891 331.064 486.674 334.812 484.239C338.748 481.805 341.09 480.119 341.84 479.183L364.049 522.724C362.925 523.848 359.645 525.721 354.21 528.342C348.775 530.964 341.746 533.399 333.125 535.646C324.504 537.893 314.665 539.017 303.607 539.017C284.116 539.017 267.81 533.212 254.691 521.601C241.759 509.99 235.293 491.824 235.293 467.104V352.211H192V301.647Z" fill="white"/>
<path d="M460.374 532.275H400.494V301.647H460.374V340.132H458.969C460.281 335.45 463.842 329.645 469.651 322.716C475.649 315.599 483.895 309.232 494.391 303.614C504.886 297.808 517.537 294.906 532.343 294.906C543.025 294.906 552.584 296.404 561.017 299.4C569.451 302.396 575.449 305.393 579.009 308.389L554.833 357.83C552.396 354.833 547.804 351.93 541.057 349.121C534.498 346.125 526.345 344.627 516.599 344.627C504.417 344.627 494.109 348.185 485.676 355.301C477.429 362.418 471.151 370.939 466.84 380.864C462.53 390.79 460.374 400.06 460.374 408.674V532.275Z" fill="white"/>
<path d="M664.617 414.854C664.617 437.327 669.208 455.212 678.392 468.508C687.763 481.805 702.475 488.453 722.529 488.453C742.77 488.453 757.482 481.805 766.665 468.508C775.849 455.212 780.441 437.327 780.441 414.854V301.647H840.039V422.439C840.039 445.661 835.448 466.074 826.264 483.678C817.081 501.094 803.774 514.671 786.344 524.41C768.914 534.148 747.643 539.017 722.529 539.017C697.602 539.017 676.424 534.148 658.994 524.41C641.564 514.671 628.258 501.094 619.074 483.678C609.891 466.074 605.299 445.661 605.299 422.439V301.647H664.617V414.854Z" fill="white"/>
<path d="M943.74 431.147C944.114 443.32 947.019 454.276 952.455 464.014C957.89 473.752 965.855 481.43 976.35 487.049C987.033 492.48 1000.06 495.195 1015.43 495.195C1028.73 495.195 1040.17 493.416 1049.72 489.858C1059.47 486.112 1067.53 481.711 1073.9 476.655C1080.27 471.411 1084.96 466.542 1087.96 462.048L1114.66 498.285C1108.85 506.151 1101.55 513.173 1092.74 519.353C1083.93 525.533 1072.96 530.309 1059.84 533.68C1046.91 537.238 1030.89 539.017 1011.77 539.017C986.658 539.017 964.824 533.867 946.27 523.567C927.715 513.267 913.284 498.753 902.976 480.026C892.856 461.298 887.796 439.387 887.796 414.293C887.796 391.82 892.481 371.594 901.852 353.616C911.223 335.45 924.811 321.124 942.615 310.637C960.607 300.149 982.16 294.906 1007.27 294.906C1030.7 294.906 1051.04 299.587 1068.28 308.951C1085.52 318.315 1098.83 331.799 1108.2 349.402C1117.76 366.819 1122.54 387.887 1122.54 412.607C1122.54 414.105 1122.44 417.195 1122.25 421.877C1122.25 426.559 1122.07 429.649 1121.69 431.147H943.74ZM1066.31 387.325C1066.12 381.332 1064.06 374.497 1060.13 366.819C1056.38 359.14 1050.29 352.492 1041.85 346.874C1033.42 341.069 1022.17 338.166 1008.12 338.166C993.686 338.166 981.973 340.975 972.977 346.593C963.981 352.024 957.327 358.579 953.017 366.257C948.706 373.748 946.176 380.771 945.426 387.325H1066.31Z" fill="white"/>
<path d="M1150.94 301.647H1195.36V237.6C1195.36 214.565 1199.67 195.838 1208.29 181.418C1216.91 166.81 1227.87 156.136 1241.18 149.394C1254.67 142.465 1268.54 139 1282.79 139C1300.22 139 1313.52 141.435 1322.71 146.304C1332.08 150.986 1337.79 154.263 1339.86 156.136L1316.24 201.081C1315.12 199.958 1312.3 197.991 1307.81 195.182C1303.31 192.186 1297.22 190.688 1289.53 190.688C1283.91 190.688 1278.48 191.999 1273.23 194.62C1268.17 197.242 1263.86 202.392 1260.3 210.07C1256.74 217.749 1254.96 228.985 1254.96 243.78V301.647H1318.21V352.211H1254.96V532.275H1195.36V352.211H1150.94V301.647Z" fill="white"/>
<path d="M1541.99 532.275V489.577C1540.49 494.071 1536.18 500.251 1529.06 508.117C1522.12 515.982 1512.56 523.099 1500.38 529.466C1488.39 535.833 1474.14 539.017 1457.65 539.017C1436.1 539.017 1416.7 533.867 1399.46 523.567C1382.22 513.267 1368.63 498.94 1358.69 480.588C1348.76 462.235 1343.8 441.073 1343.8 417.102C1343.8 393.131 1348.76 371.969 1358.69 353.616C1368.63 335.263 1382.22 320.937 1399.46 310.637C1416.7 300.149 1436.1 294.906 1457.65 294.906C1473.77 294.906 1487.73 297.715 1499.54 303.333C1511.35 308.951 1520.81 315.412 1527.93 322.716C1535.24 330.019 1539.74 336.387 1541.43 341.818V301.647H1601.03V532.275H1541.99ZM1403.11 417.102C1403.11 431.896 1406.39 444.818 1412.95 455.867C1419.51 466.917 1428.04 475.438 1438.53 481.43C1449.22 487.423 1460.65 490.42 1472.83 490.42C1485.95 490.42 1497.57 487.329 1507.69 481.149C1518 474.969 1526.06 466.448 1531.87 455.587C1537.87 444.537 1540.86 431.709 1540.86 417.102C1540.86 402.494 1537.87 389.76 1531.87 378.898C1526.06 367.849 1518 359.234 1507.69 353.054C1497.57 346.687 1485.95 343.503 1472.83 343.503C1460.65 343.503 1449.22 346.593 1438.53 352.773C1428.04 358.766 1419.51 367.287 1412.95 378.336C1406.39 389.385 1403.11 402.307 1403.11 417.102Z" fill="white"/>
<path d="M1724.17 532.275H1663.73V145.742H1724.17V532.275Z" fill="white"/>
<path d="M1881.37 294.906C1894.3 294.906 1906.29 296.123 1917.35 298.557C1928.41 300.992 1937.87 303.895 1945.74 307.266C1953.61 310.637 1959.05 313.446 1962.05 315.693L1940.12 352.773C1936.37 349.59 1929.63 345.938 1919.88 341.818C1910.32 337.698 1899.54 335.638 1887.55 335.638C1875.56 335.638 1865.43 337.791 1857.19 342.099C1848.94 346.406 1844.82 352.867 1844.82 361.481C1844.82 369.909 1849.13 376.651 1857.75 381.707C1866.56 386.763 1878.46 390.977 1893.45 394.348C1905.82 397.157 1917.63 401.09 1928.88 406.146C1940.12 411.015 1949.3 418.038 1956.43 427.215C1963.74 436.204 1967.39 448.283 1967.39 463.452C1967.39 477.872 1964.3 489.951 1958.11 499.69C1952.12 509.241 1944.06 516.919 1933.94 522.724C1923.82 528.53 1912.57 532.65 1900.2 535.084C1888.02 537.706 1875.74 539.017 1863.37 539.017C1848.19 539.017 1834.6 537.519 1822.61 534.523C1810.8 531.526 1800.96 528.062 1793.09 524.129C1785.22 520.009 1779.6 516.544 1776.22 513.735L1798.15 472.16C1803.02 476.842 1810.99 481.805 1822.05 487.049C1833.11 492.105 1845.47 494.633 1859.16 494.633C1873.77 494.633 1885.49 491.824 1894.3 486.206C1903.11 480.588 1907.51 473.097 1907.51 463.733C1907.51 456.804 1905.35 451.186 1901.04 446.878C1896.92 442.571 1891.2 439.106 1883.9 436.485C1876.59 433.863 1868.43 431.522 1859.44 429.462C1851 427.402 1842.48 424.78 1833.85 421.596C1825.42 418.225 1817.64 413.918 1810.52 408.674C1803.4 403.244 1797.68 396.502 1793.37 388.449C1789.06 380.396 1786.91 370.939 1786.91 360.077C1786.91 346.219 1791.31 334.42 1800.12 324.682C1808.93 314.944 1820.55 307.547 1834.98 302.49C1849.41 297.434 1864.87 294.906 1881.37 294.906Z" fill="white"/>
<path d="M2062.2 431.147C2062.58 443.32 2065.48 454.276 2070.92 464.014C2076.35 473.752 2084.32 481.43 2094.81 487.049C2105.5 492.48 2118.52 495.195 2133.89 495.195C2147.2 495.195 2158.63 493.416 2168.19 489.858C2177.93 486.112 2185.99 481.711 2192.37 476.655C2198.74 471.411 2203.42 466.542 2206.42 462.048L2233.13 498.285C2227.32 506.151 2220.01 513.173 2211.2 519.353C2202.39 525.533 2191.43 530.309 2178.31 533.68C2165.38 537.238 2149.35 539.017 2130.24 539.017C2105.12 539.017 2083.29 533.867 2064.73 523.567C2046.18 513.267 2031.75 498.753 2021.44 480.026C2011.32 461.298 2006.26 439.387 2006.26 414.293C2006.26 391.82 2010.95 371.594 2020.32 353.616C2029.69 335.45 2043.27 321.124 2061.08 310.637C2079.07 300.149 2100.62 294.906 2125.74 294.906C2149.17 294.906 2169.5 299.587 2186.74 308.951C2203.99 318.315 2217.29 331.799 2226.66 349.402C2236.22 366.819 2241 387.887 2241 412.607C2241 414.105 2240.91 417.195 2240.72 421.877C2240.72 426.559 2240.53 429.649 2240.16 431.147H2062.2ZM2184.77 387.325C2184.59 381.332 2182.53 374.497 2178.59 366.819C2174.84 359.14 2168.75 352.492 2160.32 346.874C2151.88 341.069 2140.64 338.166 2126.58 338.166C2112.15 338.166 2100.44 340.975 2091.44 346.593C2082.44 352.024 2075.79 358.579 2071.48 366.257C2067.17 373.748 2064.64 380.771 2063.89 387.325H2184.77Z" fill="white"/>
<path d="M231.681 725.997V646.181H266.599C275.271 646.181 282.879 647.854 289.421 651.198C295.963 654.543 301.06 659.18 304.712 665.109C308.363 671.038 310.189 678.032 310.189 686.089C310.189 694.071 308.363 701.064 304.712 707.07C301.06 712.999 295.963 717.636 289.421 720.98C282.879 724.325 275.271 725.997 266.599 725.997H231.681ZM246.516 713.455H265.914C271.924 713.455 277.097 712.315 281.433 710.034C285.846 707.754 289.231 704.561 291.589 700.456C294.024 696.351 295.241 691.562 295.241 686.089C295.241 680.54 294.024 675.751 291.589 671.722C289.231 667.618 285.846 664.425 281.433 662.145C277.097 659.864 271.924 658.724 265.914 658.724H246.516V713.455Z" fill="white"/>
<path d="M337.367 725.997V646.181H352.201V725.997H337.367Z" fill="white"/>
<path d="M422.532 727.138C416.294 727.138 410.55 726.15 405.301 724.173C400.128 722.121 395.602 719.27 391.722 715.621C387.842 711.897 384.837 707.526 382.707 702.509C380.577 697.492 379.512 692.019 379.512 686.089C379.512 680.16 380.577 674.687 382.707 669.67C384.837 664.653 387.842 660.32 391.722 656.671C395.678 652.947 400.28 650.096 405.529 648.12C410.778 646.067 416.522 645.041 422.76 645.041C429.531 645.041 435.616 646.143 441.018 648.348C446.495 650.552 451.097 653.783 454.825 658.04L445.468 667.162C442.349 664.045 438.964 661.764 435.312 660.32C431.737 658.8 427.781 658.04 423.445 658.04C419.261 658.04 415.381 658.724 411.805 660.092C408.23 661.46 405.149 663.399 402.562 665.907C399.976 668.416 397.96 671.38 396.515 674.801C395.145 678.222 394.461 681.985 394.461 686.089C394.461 690.118 395.145 693.843 396.515 697.264C397.96 700.684 399.976 703.687 402.562 706.271C405.149 708.78 408.192 710.718 411.691 712.087C415.191 713.455 419.07 714.139 423.331 714.139C427.286 714.139 431.09 713.531 434.742 712.315C438.469 711.022 442.007 708.894 445.354 705.929L453.798 716.99C449.614 720.334 444.745 722.881 439.192 724.629C433.715 726.302 428.161 727.138 422.532 727.138ZM439.762 715.051V685.177H453.798V716.99L439.762 715.051Z" fill="white"/>
<path d="M484.775 725.997V646.181H499.609V725.997H484.775Z" fill="white"/>
<path d="M548.829 725.997V658.724H522.355V646.181H590.137V658.724H563.663V725.997H548.829Z" fill="white"/>
<path d="M597.372 725.997L633.317 646.181H647.923L683.982 725.997H668.463L637.539 654.049H643.473L612.663 725.997H597.372ZM613.918 707.526L617.912 695.895H661.046L665.04 707.526H613.918Z" fill="white"/>
<path d="M705.551 725.997V646.181H720.386V713.455H762.15V725.997H705.551Z" fill="white"/>
<path d="M852.982 727.138C846.744 727.138 840.772 726.264 835.067 724.515C829.361 722.691 824.835 720.372 821.488 717.56L826.623 706.043C829.818 708.552 833.773 710.642 838.49 712.315C843.207 713.987 848.037 714.823 852.982 714.823C857.166 714.823 860.551 714.367 863.138 713.455C865.724 712.543 867.626 711.326 868.843 709.806C870.061 708.21 870.669 706.423 870.669 704.447C870.669 702.015 869.794 700.076 868.045 698.632C866.295 697.112 864.013 695.933 861.198 695.097C858.459 694.185 855.378 693.349 851.955 692.589C848.608 691.829 845.223 690.954 841.799 689.966C838.452 688.902 835.371 687.572 832.556 685.975C829.818 684.303 827.573 682.099 825.824 679.362C824.074 676.625 823.199 673.129 823.199 668.872C823.199 664.539 824.34 660.586 826.623 657.014C828.981 653.365 832.518 650.476 837.235 648.348C842.027 646.143 848.075 645.041 855.378 645.041C860.171 645.041 864.926 645.649 869.642 646.865C874.359 648.082 878.467 649.83 881.966 652.11L877.288 663.627C873.712 661.498 870.023 659.94 866.219 658.952C862.415 657.888 858.764 657.356 855.264 657.356C851.156 657.356 847.809 657.85 845.223 658.838C842.712 659.826 840.848 661.118 839.631 662.715C838.49 664.311 837.92 666.135 837.92 668.188C837.92 670.62 838.756 672.597 840.43 674.117C842.18 675.561 844.424 676.702 847.162 677.538C849.977 678.374 853.096 679.21 856.519 680.046C859.943 680.806 863.328 681.68 866.675 682.669C870.099 683.657 873.18 684.949 875.918 686.545C878.733 688.142 880.977 690.308 882.651 693.045C884.4 695.781 885.275 699.24 885.275 703.421C885.275 707.678 884.096 711.631 881.738 715.279C879.456 718.852 875.918 721.741 871.126 723.945C866.333 726.073 860.285 727.138 852.982 727.138Z" fill="white"/>
<path d="M926.485 725.997V658.724H900.012V646.181H967.793V658.724H941.32V725.997H926.485Z" fill="white"/>
<path d="M1023.24 727.138C1012.28 727.138 1003.68 724.059 997.447 717.902C991.285 711.745 988.204 702.851 988.204 691.22V646.181H1003.04V690.65C1003.04 698.86 1004.79 704.827 1008.29 708.552C1011.86 712.277 1016.88 714.139 1023.35 714.139C1029.82 714.139 1034.8 712.277 1038.3 708.552C1041.8 704.827 1043.55 698.86 1043.55 690.65V646.181H1058.15V691.22C1058.15 702.851 1055.03 711.745 1048.8 717.902C1042.63 724.059 1034.11 727.138 1023.24 727.138Z" fill="white"/>
<path d="M1090.34 725.997V646.181H1125.26C1133.93 646.181 1141.54 647.854 1148.08 651.198C1154.62 654.543 1159.72 659.18 1163.37 665.109C1167.02 671.038 1168.85 678.032 1168.85 686.089C1168.85 694.071 1167.02 701.064 1163.37 707.07C1159.72 712.999 1154.62 717.636 1148.08 720.98C1141.54 724.325 1133.93 725.997 1125.26 725.997H1090.34ZM1105.17 713.455H1124.57C1130.58 713.455 1135.76 712.315 1140.09 710.034C1144.5 707.754 1147.89 704.561 1150.25 700.456C1152.68 696.351 1153.9 691.562 1153.9 686.089C1153.9 680.54 1152.68 675.751 1150.25 671.722C1147.89 667.618 1144.5 664.425 1140.09 662.145C1135.76 659.864 1130.58 658.724 1124.57 658.724H1105.17V713.455Z" fill="white"/>
<path d="M1196.03 725.997V646.181H1210.86V725.997H1196.03Z" fill="white"/>
<path d="M1281.3 727.138C1275.07 727.138 1269.32 726.111 1264.07 724.059C1258.82 722.007 1254.26 719.156 1250.38 715.507C1246.5 711.783 1243.5 707.45 1241.37 702.509C1239.24 697.492 1238.17 692.019 1238.17 686.089C1238.17 680.16 1239.24 674.725 1241.37 669.784C1243.5 664.767 1246.5 660.434 1250.38 656.785C1254.26 653.061 1258.82 650.172 1264.07 648.12C1269.32 646.067 1275.03 645.041 1281.19 645.041C1287.43 645.041 1293.13 646.067 1298.31 648.12C1303.56 650.172 1308.12 653.061 1312 656.785C1315.88 660.434 1318.88 664.767 1321.01 669.784C1323.14 674.725 1324.21 680.16 1324.21 686.089C1324.21 692.019 1323.14 697.492 1321.01 702.509C1318.88 707.526 1315.88 711.859 1312 715.507C1308.12 719.156 1303.56 722.007 1298.31 724.059C1293.13 726.111 1287.47 727.138 1281.3 727.138ZM1281.19 714.139C1285.22 714.139 1288.95 713.455 1292.37 712.087C1295.8 710.718 1298.76 708.78 1301.27 706.271C1303.78 703.687 1305.72 700.722 1307.09 697.378C1308.54 693.957 1309.26 690.194 1309.26 686.089C1309.26 681.985 1308.54 678.26 1307.09 674.915C1305.72 671.494 1303.78 668.53 1301.27 666.021C1298.76 663.437 1295.8 661.46 1292.37 660.092C1288.95 658.724 1285.22 658.04 1281.19 658.04C1277.16 658.04 1273.43 658.724 1270.01 660.092C1266.66 661.46 1263.69 663.437 1261.11 666.021C1258.6 668.53 1256.62 671.494 1255.17 674.915C1253.8 678.26 1253.12 681.985 1253.12 686.089C1253.12 690.118 1253.8 693.843 1255.17 697.264C1256.62 700.684 1258.6 703.687 1261.11 706.271C1263.62 708.78 1266.58 710.718 1270.01 712.087C1273.43 713.455 1277.16 714.139 1281.19 714.139Z" fill="white"/>
<path d="M1423.24 630.515H1512.3V764H1423.24V630.515Z" fill="white"/>
</svg>
