<svg width="2049" height="625" viewBox="0 0 2049 625" fill="none" xmlns="http://www.w3.org/2000/svg">
<path d="M0 162.647H43.2934V67.9804H102.892V162.647H159.961V213.211H102.892V311.811C102.892 324.171 104.954 333.441 109.077 339.621C113.387 345.801 119.479 348.891 127.35 348.891C133.91 348.891 139.064 347.674 142.812 345.239C146.748 342.805 149.09 341.119 149.84 340.183L172.049 383.724C170.925 384.848 167.645 386.721 162.21 389.342C156.775 391.964 149.746 394.399 141.125 396.646C132.504 398.893 122.665 400.017 111.607 400.017C92.1156 400.017 75.8103 394.212 62.6911 382.601C49.7593 370.99 43.2934 352.824 43.2934 328.104V213.211H0V162.647Z" fill="white"/>
<path d="M268.374 393.275H208.494V162.647H268.374V201.132H266.969C268.281 196.45 271.842 190.645 277.651 183.716C283.649 176.599 291.895 170.232 302.391 164.614C312.886 158.808 325.537 155.906 340.343 155.906C351.025 155.906 360.584 157.404 369.017 160.4C377.451 163.396 383.449 166.393 387.009 169.389L362.833 218.83C360.396 215.833 355.804 212.93 349.057 210.121C342.498 207.125 334.345 205.627 324.599 205.627C312.417 205.627 302.109 209.185 293.676 216.301C285.429 223.418 279.151 231.939 274.84 241.864C270.53 251.79 268.374 261.06 268.374 269.674V393.275Z" fill="white"/>
<path d="M472.617 275.854C472.617 298.327 477.208 316.212 486.392 329.508C495.763 342.805 510.475 349.453 530.529 349.453C550.77 349.453 565.482 342.805 574.665 329.508C583.849 316.212 588.441 298.327 588.441 275.854V162.647H648.039V283.439C648.039 306.661 643.448 327.074 634.264 344.678C625.081 362.094 611.774 375.671 594.344 385.41C576.914 395.148 555.643 400.017 530.529 400.017C505.602 400.017 484.424 395.148 466.994 385.41C449.564 375.671 436.258 362.094 427.074 344.678C417.891 327.074 413.299 306.661 413.299 283.439V162.647H472.617V275.854Z" fill="white"/>
<path d="M751.74 292.147C752.114 304.32 755.019 315.276 760.455 325.014C765.89 334.752 773.855 342.43 784.35 348.049C795.033 353.48 808.059 356.195 823.427 356.195C836.733 356.195 848.166 354.416 857.724 350.858C867.47 347.112 875.529 342.711 881.901 337.655C888.273 332.411 892.959 327.542 895.957 323.048L922.664 359.285C916.854 367.151 909.545 374.173 900.736 380.353C891.928 386.533 880.964 391.309 867.845 394.68C854.913 398.238 838.889 400.017 819.772 400.017C794.658 400.017 772.824 394.867 754.27 384.567C735.715 374.267 721.284 359.753 710.976 341.026C700.856 322.298 695.796 300.387 695.796 275.293C695.796 252.82 700.481 232.594 709.852 214.616C719.223 196.45 732.811 182.124 750.615 171.637C768.607 161.149 790.16 155.906 815.274 155.906C838.701 155.906 859.036 160.587 876.278 169.951C893.521 179.315 906.828 192.799 916.198 210.402C925.757 227.819 930.536 248.887 930.536 273.607C930.536 275.105 930.442 278.195 930.255 282.877C930.255 287.559 930.067 290.649 929.692 292.147H751.74ZM874.311 248.325C874.123 242.332 872.062 235.497 868.126 227.819C864.377 220.14 858.286 213.492 849.853 207.874C841.419 202.069 830.174 199.166 816.118 199.166C801.686 199.166 789.973 201.975 780.977 207.593C771.981 213.024 765.327 219.579 761.017 227.257C756.706 234.748 754.176 241.771 753.426 248.325H874.311Z" fill="white"/>
<path d="M958.938 162.647H1003.36V98.5997C1003.36 75.565 1007.67 56.8376 1016.29 42.4175C1024.91 27.8102 1035.87 17.1356 1049.18 10.3937C1062.67 3.46457 1076.54 0 1090.79 0C1108.22 0 1121.52 2.43456 1130.71 7.30369C1140.08 11.9855 1145.79 15.2628 1147.86 17.1356L1124.24 62.0813C1123.12 60.9577 1120.3 58.9913 1115.81 56.1822C1111.31 53.1858 1105.22 51.6876 1097.53 51.6876C1091.91 51.6876 1086.48 52.9985 1081.23 55.6204C1076.17 58.2422 1071.86 63.3922 1068.3 71.0705C1064.74 78.7487 1062.96 89.9851 1062.96 104.78V162.647H1126.21V213.211H1062.96V393.275H1003.36V213.211H958.938V162.647Z" fill="white"/>
<path d="M1349.99 393.275V350.577C1348.49 355.071 1344.18 361.251 1337.06 369.117C1330.12 376.982 1320.56 384.099 1308.38 390.466C1296.39 396.833 1282.14 400.017 1265.65 400.017C1244.1 400.017 1224.7 394.867 1207.46 384.567C1190.22 374.267 1176.63 359.94 1166.69 341.588C1156.76 323.235 1151.8 302.073 1151.8 278.102C1151.8 254.131 1156.76 232.969 1166.69 214.616C1176.63 196.263 1190.22 181.937 1207.46 171.637C1224.7 161.149 1244.1 155.906 1265.65 155.906C1281.77 155.906 1295.73 158.715 1307.54 164.333C1319.35 169.951 1328.81 176.412 1335.93 183.716C1343.24 191.019 1347.74 197.387 1349.43 202.818V162.647H1409.03V393.275H1349.99ZM1211.11 278.102C1211.11 292.896 1214.39 305.818 1220.95 316.867C1227.51 327.917 1236.04 336.438 1246.53 342.43C1257.22 348.423 1268.65 351.42 1280.83 351.42C1293.95 351.42 1305.57 348.329 1315.69 342.149C1326 335.969 1334.06 327.448 1339.87 316.587C1345.87 305.537 1348.86 292.709 1348.86 278.102C1348.86 263.494 1345.87 250.76 1339.87 239.898C1334.06 228.849 1326 220.234 1315.69 214.054C1305.57 207.687 1293.95 204.503 1280.83 204.503C1268.65 204.503 1257.22 207.593 1246.53 213.773C1236.04 219.766 1227.51 228.287 1220.95 239.336C1214.39 250.385 1211.11 263.307 1211.11 278.102Z" fill="white"/>
<path d="M1532.17 393.275H1471.73V6.74187H1532.17V393.275Z" fill="white"/>
<path d="M1689.37 155.906C1702.3 155.906 1714.29 157.123 1725.35 159.557C1736.41 161.992 1745.87 164.895 1753.74 168.266C1761.61 171.637 1767.05 174.446 1770.05 176.693L1748.12 213.773C1744.37 210.59 1737.63 206.938 1727.88 202.818C1718.32 198.698 1707.54 196.638 1695.55 196.638C1683.56 196.638 1673.43 198.791 1665.19 203.099C1656.94 207.406 1652.82 213.867 1652.82 222.481C1652.82 230.909 1657.13 237.651 1665.75 242.707C1674.56 247.763 1686.46 251.977 1701.45 255.348C1713.82 258.157 1725.63 262.09 1736.88 267.146C1748.12 272.015 1757.3 279.038 1764.43 288.215C1771.74 297.204 1775.39 309.283 1775.39 324.452C1775.39 338.872 1772.3 350.951 1766.11 360.69C1760.12 370.241 1752.06 377.919 1741.94 383.724C1731.82 389.53 1720.57 393.65 1708.2 396.084C1696.02 398.706 1683.74 400.017 1671.37 400.017C1656.19 400.017 1642.6 398.519 1630.61 395.523C1618.8 392.526 1608.96 389.062 1601.09 385.129C1593.22 381.009 1587.6 377.544 1584.22 374.735L1606.15 333.16C1611.02 337.842 1618.99 342.805 1630.05 348.049C1641.11 353.105 1653.47 355.633 1667.16 355.633C1681.77 355.633 1693.49 352.824 1702.3 347.206C1711.11 341.588 1715.51 334.097 1715.51 324.733C1715.51 317.804 1713.35 312.186 1709.04 307.878C1704.92 303.571 1699.2 300.106 1691.9 297.485C1684.59 294.863 1676.43 292.522 1667.44 290.462C1659 288.402 1650.48 285.78 1641.85 282.596C1633.42 279.225 1625.64 274.918 1618.52 269.674C1611.4 264.244 1605.68 257.502 1601.37 249.449C1597.06 241.396 1594.91 231.939 1594.91 221.077C1594.91 207.219 1599.31 195.42 1608.12 185.682C1616.93 175.944 1628.55 168.547 1642.98 163.49C1657.41 158.434 1672.87 155.906 1689.37 155.906Z" fill="white"/>
<path d="M1870.2 292.147C1870.58 304.32 1873.48 315.276 1878.92 325.014C1884.35 334.752 1892.32 342.43 1902.81 348.049C1913.5 353.48 1926.52 356.195 1941.89 356.195C1955.2 356.195 1966.63 354.416 1976.19 350.858C1985.93 347.112 1993.99 342.711 2000.37 337.655C2006.74 332.411 2011.42 327.542 2014.42 323.048L2041.13 359.285C2035.32 367.151 2028.01 374.173 2019.2 380.353C2010.39 386.533 1999.43 391.309 1986.31 394.68C1973.38 398.238 1957.35 400.017 1938.24 400.017C1913.12 400.017 1891.29 394.867 1872.73 384.567C1854.18 374.267 1839.75 359.753 1829.44 341.026C1819.32 322.298 1814.26 300.387 1814.26 275.293C1814.26 252.82 1818.95 232.594 1828.32 214.616C1837.69 196.45 1851.27 182.124 1869.08 171.637C1887.07 161.149 1908.62 155.906 1933.74 155.906C1957.17 155.906 1977.5 160.587 1994.74 169.951C2011.99 179.315 2025.29 192.799 2034.66 210.402C2044.22 227.819 2049 248.887 2049 273.607C2049 275.105 2048.91 278.195 2048.72 282.877C2048.72 287.559 2048.53 290.649 2048.16 292.147H1870.2ZM1992.77 248.325C1992.59 242.332 1990.53 235.497 1986.59 227.819C1982.84 220.14 1976.75 213.492 1968.32 207.874C1959.88 202.069 1948.64 199.166 1934.58 199.166C1920.15 199.166 1908.44 201.975 1899.44 207.593C1890.44 213.024 1883.79 219.579 1879.48 227.257C1875.17 234.748 1872.64 241.771 1871.89 248.325H1992.77Z" fill="white"/>
<path d="M39.6813 586.997V507.181H74.599C83.2714 507.181 90.8788 508.854 97.4211 512.198C103.963 515.543 109.06 520.18 112.712 526.109C116.363 532.038 118.189 539.032 118.189 547.089C118.189 555.071 116.363 562.064 112.712 568.07C109.06 573.999 103.963 578.636 97.4211 581.98C90.8788 585.325 83.2714 586.997 74.599 586.997H39.6813ZM54.5156 574.455H73.9144C79.9242 574.455 85.0972 573.315 89.4334 571.034C93.8457 568.754 97.2309 565.561 99.5892 561.456C102.024 557.351 103.241 552.562 103.241 547.089C103.241 541.54 102.024 536.751 99.5892 532.722C97.2309 528.618 93.8457 525.425 89.4334 523.145C85.0972 520.864 79.9242 519.724 73.9144 519.724H54.5156V574.455Z" fill="white"/>
<path d="M145.367 586.997V507.181H160.201V586.997H145.367Z" fill="white"/>
<path d="M230.532 588.138C224.294 588.138 218.55 587.15 213.301 585.173C208.128 583.121 203.602 580.27 199.722 576.621C195.842 572.897 192.837 568.526 190.707 563.509C188.577 558.492 187.512 553.019 187.512 547.089C187.512 541.16 188.577 535.687 190.707 530.67C192.837 525.653 195.842 521.32 199.722 517.671C203.678 513.947 208.28 511.096 213.529 509.12C218.778 507.067 224.522 506.041 230.76 506.041C237.531 506.041 243.616 507.143 249.018 509.348C254.495 511.552 259.097 514.783 262.825 519.04L253.468 528.162C250.349 525.045 246.964 522.764 243.312 521.32C239.737 519.8 235.781 519.04 231.445 519.04C227.261 519.04 223.381 519.724 219.805 521.092C216.23 522.46 213.149 524.399 210.562 526.907C207.976 529.416 205.96 532.38 204.515 535.801C203.145 539.222 202.461 542.985 202.461 547.089C202.461 551.118 203.145 554.843 204.515 558.264C205.96 561.684 207.976 564.687 210.562 567.271C213.149 569.78 216.192 571.718 219.691 573.087C223.191 574.455 227.07 575.139 231.331 575.139C235.286 575.139 239.09 574.531 242.742 573.315C246.469 572.022 250.007 569.894 253.354 566.929L261.798 577.99C257.614 581.334 252.745 583.881 247.192 585.629C241.715 587.302 236.161 588.138 230.532 588.138ZM247.762 576.051V546.177H261.798V577.99L247.762 576.051Z" fill="white"/>
<path d="M292.775 586.997V507.181H307.609V586.997H292.775Z" fill="white"/>
<path d="M356.829 586.997V519.724H330.355V507.181H398.137V519.724H371.663V586.997H356.829Z" fill="white"/>
<path d="M405.372 586.997L441.317 507.181H455.923L491.982 586.997H476.463L445.539 515.049H451.473L420.663 586.997H405.372ZM421.918 568.526L425.912 556.895H469.046L473.04 568.526H421.918Z" fill="white"/>
<path d="M513.551 586.997V507.181H528.386V574.455H570.15V586.997H513.551Z" fill="white"/>
<path d="M660.982 588.138C654.744 588.138 648.772 587.264 643.067 585.515C637.361 583.691 632.835 581.372 629.488 578.56L634.623 567.043C637.818 569.552 641.773 571.642 646.49 573.315C651.207 574.987 656.037 575.823 660.982 575.823C665.166 575.823 668.551 575.367 671.138 574.455C673.724 573.543 675.626 572.326 676.843 570.806C678.061 569.21 678.669 567.423 678.669 565.447C678.669 563.015 677.794 561.076 676.045 559.632C674.295 558.112 672.013 556.933 669.198 556.097C666.459 555.185 663.378 554.349 659.955 553.589C656.608 552.829 653.223 551.954 649.799 550.966C646.452 549.902 643.371 548.572 640.556 546.975C637.818 545.303 635.573 543.099 633.824 540.362C632.074 537.625 631.199 534.129 631.199 529.872C631.199 525.539 632.34 521.586 634.623 518.014C636.981 514.365 640.518 511.476 645.235 509.348C650.027 507.143 656.075 506.041 663.378 506.041C668.171 506.041 672.926 506.649 677.642 507.865C682.359 509.082 686.467 510.83 689.966 513.11L685.288 524.627C681.712 522.498 678.023 520.94 674.219 519.952C670.415 518.888 666.764 518.356 663.264 518.356C659.156 518.356 655.809 518.85 653.223 519.838C650.712 520.826 648.848 522.118 647.631 523.715C646.49 525.311 645.92 527.135 645.92 529.188C645.92 531.62 646.756 533.597 648.43 535.117C650.18 536.561 652.424 537.702 655.162 538.538C657.977 539.374 661.096 540.21 664.519 541.046C667.943 541.806 671.328 542.68 674.675 543.669C678.099 544.657 681.18 545.949 683.918 547.545C686.733 549.142 688.977 551.308 690.651 554.045C692.4 556.781 693.275 560.24 693.275 564.421C693.275 568.678 692.096 572.631 689.738 576.279C687.456 579.852 683.918 582.741 679.126 584.945C674.333 587.073 668.285 588.138 660.982 588.138Z" fill="white"/>
<path d="M734.485 586.997V519.724H708.012V507.181H775.793V519.724H749.32V586.997H734.485Z" fill="white"/>
<path d="M831.236 588.138C820.281 588.138 811.685 585.059 805.447 578.902C799.285 572.745 796.204 563.851 796.204 552.22V507.181H811.038V551.65C811.038 559.86 812.788 565.827 816.287 569.552C819.863 573.277 824.883 575.139 831.35 575.139C837.816 575.139 842.799 573.277 846.298 569.552C849.798 565.827 851.547 559.86 851.547 551.65V507.181H866.153V552.22C866.153 563.851 863.034 572.745 856.796 578.902C850.634 585.059 842.114 588.138 831.236 588.138Z" fill="white"/>
<path d="M898.34 586.997V507.181H933.257C941.93 507.181 949.537 508.854 956.08 512.198C962.622 515.543 967.719 520.18 971.37 526.109C975.022 532.038 976.848 539.032 976.848 547.089C976.848 555.071 975.022 562.064 971.37 568.07C967.719 573.999 962.622 578.636 956.08 581.98C949.537 585.325 941.93 586.997 933.257 586.997H898.34ZM913.174 574.455H932.573C938.583 574.455 943.756 573.315 948.092 571.034C952.504 568.754 955.889 565.561 958.248 561.456C960.682 557.351 961.899 552.562 961.899 547.089C961.899 541.54 960.682 536.751 958.248 532.722C955.889 528.618 952.504 525.425 948.092 523.145C943.756 520.864 938.583 519.724 932.573 519.724H913.174V574.455Z" fill="white"/>
<path d="M1004.03 586.997V507.181H1018.86V586.997H1004.03Z" fill="white"/>
<path d="M1089.3 588.138C1083.07 588.138 1077.32 587.111 1072.07 585.059C1066.82 583.007 1062.26 580.156 1058.38 576.507C1054.5 572.783 1051.5 568.45 1049.37 563.509C1047.24 558.492 1046.17 553.019 1046.17 547.089C1046.17 541.16 1047.24 535.725 1049.37 530.784C1051.5 525.767 1054.5 521.434 1058.38 517.785C1062.26 514.061 1066.82 511.172 1072.07 509.12C1077.32 507.067 1083.03 506.041 1089.19 506.041C1095.43 506.041 1101.13 507.067 1106.31 509.12C1111.56 511.172 1116.12 514.061 1120 517.785C1123.88 521.434 1126.88 525.767 1129.01 530.784C1131.14 535.725 1132.21 541.16 1132.21 547.089C1132.21 553.019 1131.14 558.492 1129.01 563.509C1126.88 568.526 1123.88 572.859 1120 576.507C1116.12 580.156 1111.56 583.007 1106.31 585.059C1101.13 587.111 1095.47 588.138 1089.3 588.138ZM1089.19 575.139C1093.22 575.139 1096.95 574.455 1100.37 573.087C1103.8 571.718 1106.76 569.78 1109.27 567.271C1111.78 564.687 1113.72 561.722 1115.09 558.378C1116.54 554.957 1117.26 551.194 1117.26 547.089C1117.26 542.985 1116.54 539.26 1115.09 535.915C1113.72 532.494 1111.78 529.53 1109.27 527.021C1106.76 524.437 1103.8 522.46 1100.37 521.092C1096.95 519.724 1093.22 519.04 1089.19 519.04C1085.16 519.04 1081.43 519.724 1078.01 521.092C1074.66 522.46 1071.69 524.437 1069.11 527.021C1066.6 529.53 1064.62 532.494 1063.17 535.915C1061.8 539.26 1061.12 542.985 1061.12 547.089C1061.12 551.118 1061.8 554.843 1063.17 558.264C1064.62 561.684 1066.6 564.687 1069.11 567.271C1071.62 569.78 1074.58 571.718 1078.01 573.087C1081.43 574.455 1085.16 575.139 1089.19 575.139Z" fill="white"/>
<path d="M1231.24 491.515H1320.3V625H1231.24V491.515Z" fill="white"/>
</svg>
