<svg width="625" height="2049" viewBox="0 0 625 2049" fill="none" xmlns="http://www.w3.org/2000/svg">
<path d="M162.647 2049L162.647 2005.71L67.9804 2005.71L67.9804 1946.11L162.647 1946.11L162.647 1889.04L213.211 1889.04L213.211 1946.11L311.811 1946.11C324.171 1946.11 333.441 1944.05 339.621 1939.92C345.801 1935.61 348.891 1929.52 348.891 1921.65C348.891 1915.09 347.674 1909.94 345.239 1906.19C342.805 1902.25 341.119 1899.91 340.183 1899.16L383.724 1876.95C384.848 1878.08 386.721 1881.36 389.342 1886.79C391.964 1892.23 394.399 1899.25 396.646 1907.87C398.893 1916.5 400.017 1926.34 400.017 1937.39C400.017 1956.88 394.212 1973.19 382.601 1986.31C370.99 1999.24 352.824 2005.71 328.104 2005.71L213.211 2005.71L213.211 2049L162.647 2049Z" fill="black"/>
<path d="M393.275 1780.63L393.275 1840.51L162.647 1840.51L162.647 1780.63L201.132 1780.63L201.132 1782.03C196.45 1780.72 190.645 1777.16 183.716 1771.35C176.599 1765.35 170.232 1757.1 164.614 1746.61C158.808 1736.11 155.906 1723.46 155.906 1708.66C155.906 1697.97 157.404 1688.42 160.4 1679.98C163.396 1671.55 166.393 1665.55 169.389 1661.99L218.83 1686.17C215.833 1688.6 212.93 1693.2 210.121 1699.94C207.125 1706.5 205.627 1714.65 205.627 1724.4C205.627 1736.58 209.185 1746.89 216.301 1755.32C223.418 1763.57 231.939 1769.85 241.864 1774.16C251.79 1778.47 261.06 1780.63 269.674 1780.63L393.275 1780.63Z" fill="black"/>
<path d="M275.854 1576.38C298.327 1576.38 316.212 1571.79 329.508 1562.61C342.805 1553.24 349.453 1538.52 349.453 1518.47C349.453 1498.23 342.805 1483.52 329.508 1474.33C316.212 1465.15 298.327 1460.56 275.854 1460.56L162.647 1460.56L162.647 1400.96L283.439 1400.96C306.661 1400.96 327.074 1405.55 344.678 1414.74C362.094 1423.92 375.671 1437.23 385.41 1454.66C395.148 1472.09 400.017 1493.36 400.017 1518.47C400.017 1543.4 395.148 1564.58 385.41 1582.01C375.671 1599.44 362.094 1612.74 344.678 1621.93C327.074 1631.11 306.661 1635.7 283.439 1635.7L162.647 1635.7L162.647 1576.38L275.854 1576.38Z" fill="black"/>
<path d="M292.147 1297.26C304.32 1296.89 315.276 1293.98 325.014 1288.55C334.752 1283.11 342.43 1275.15 348.049 1264.65C353.479 1253.97 356.195 1240.94 356.195 1225.57C356.195 1212.27 354.416 1200.83 350.858 1191.28C347.112 1181.53 342.711 1173.47 337.655 1167.1C332.411 1160.73 327.542 1156.04 323.047 1153.04L359.285 1126.34C367.15 1132.15 374.173 1139.45 380.353 1148.26C386.533 1157.07 391.309 1168.04 394.68 1181.16C398.238 1194.09 400.017 1210.11 400.017 1229.23C400.017 1254.34 394.867 1276.18 384.567 1294.73C374.267 1313.28 359.753 1327.72 341.026 1338.02C322.298 1348.14 300.387 1353.2 275.293 1353.2C252.82 1353.2 232.594 1348.52 214.616 1339.15C196.45 1329.78 182.124 1316.19 171.637 1298.38C161.149 1280.39 155.906 1258.84 155.906 1233.73C155.906 1210.3 160.587 1189.96 169.951 1172.72C179.315 1155.48 192.798 1142.17 210.402 1132.8C227.819 1123.24 248.887 1118.46 273.607 1118.46C275.105 1118.46 278.195 1118.56 282.877 1118.75C287.559 1118.75 290.649 1118.93 292.147 1119.31L292.147 1297.26ZM248.325 1174.69C242.332 1174.88 235.497 1176.94 227.819 1180.87C220.14 1184.62 213.492 1190.71 207.874 1199.15C202.069 1207.58 199.166 1218.83 199.166 1232.88C199.166 1247.31 201.975 1259.03 207.593 1268.02C213.024 1277.02 219.579 1283.67 227.257 1287.98C234.748 1292.29 241.771 1294.82 248.325 1295.57L248.325 1174.69Z" fill="black"/>
<path d="M162.647 1090.06L162.647 1045.64L98.5997 1045.64C75.565 1045.64 56.8376 1041.33 42.4175 1032.71C27.8101 1024.09 17.1355 1013.13 10.3937 999.82C3.46453 986.326 -4.70572e-05 972.457 -4.76798e-05 958.214C-4.84417e-05 940.784 2.43451 927.477 7.30364 918.294C11.9855 908.923 15.2628 903.207 17.1355 901.145L62.0813 924.76C60.9576 925.884 58.9912 928.695 56.1821 933.193C53.1857 937.691 51.6876 943.782 51.6876 951.467C51.6876 957.089 52.9985 962.524 55.6203 967.772C58.2421 972.832 63.3922 977.143 71.0704 980.704C78.7486 984.265 89.9851 986.045 104.78 986.045L162.647 986.045L162.647 922.792L213.211 922.792L213.211 986.045L393.275 986.045L393.275 1045.64L213.211 1045.64L213.211 1090.06L162.647 1090.06Z" fill="black"/>
<path d="M393.275 699.011L350.577 699.011C355.071 700.51 361.251 704.821 369.117 711.943C376.982 718.877 384.099 728.435 390.466 740.618C396.833 752.612 400.017 766.856 400.017 783.349C400.017 804.902 394.867 824.299 384.567 841.542C374.267 858.784 359.94 872.372 341.588 882.305C323.235 892.238 302.073 897.205 278.102 897.205C254.131 897.205 232.969 892.238 214.616 882.305C196.263 872.372 181.937 858.784 171.637 841.542C161.149 824.299 155.905 804.902 155.905 783.349C155.905 767.231 158.715 753.268 164.333 741.461C169.951 729.654 176.412 720.189 183.716 713.067C191.019 705.758 197.387 701.26 202.818 699.573L162.647 699.573L162.647 639.975L393.275 639.975L393.275 699.011ZM278.102 837.887C292.896 837.887 305.818 834.607 316.867 828.048C327.917 821.488 336.438 812.961 342.43 802.465C348.423 791.783 351.419 780.35 351.419 768.168C351.419 755.049 348.329 743.429 342.149 733.308C335.969 723 327.448 714.941 316.587 709.132C305.537 703.134 292.709 700.136 278.102 700.136C263.494 700.136 250.76 703.134 239.898 709.132C228.849 714.941 220.234 723 214.054 733.308C207.687 743.429 204.503 755.049 204.503 768.168C204.503 780.35 207.593 791.783 213.773 802.465C219.766 812.961 228.287 821.488 239.336 828.048C250.385 834.607 263.307 837.887 278.102 837.887Z" fill="black"/>
<path d="M393.275 516.833L393.275 577.275L6.74181 577.275L6.74181 516.833L393.275 516.833Z" fill="black"/>
<path d="M155.905 359.635C155.905 346.703 157.123 334.708 159.557 323.651C161.992 312.593 164.895 303.129 168.266 295.257C171.636 287.385 174.446 281.95 176.693 278.952L213.773 300.88C210.589 304.628 206.938 311.375 202.818 321.121C198.698 330.679 196.638 341.455 196.638 353.45C196.638 365.445 198.791 375.565 203.098 383.812C207.406 392.058 213.867 396.181 222.481 396.181C230.909 396.181 237.651 391.871 242.707 383.249C247.763 374.441 251.977 362.54 255.348 347.547C258.157 335.177 262.09 323.37 267.146 312.125C272.015 300.88 279.038 291.696 288.215 284.574C297.204 277.265 309.283 273.61 324.452 273.61C338.872 273.61 350.951 276.703 360.69 282.887C370.24 288.885 377.919 296.944 383.724 307.064C389.53 317.185 393.65 328.43 396.084 340.799C398.706 352.982 400.017 365.257 400.017 377.627C400.017 392.808 398.519 406.396 395.522 418.39C392.526 430.198 389.062 440.037 385.129 447.908C381.009 455.78 377.544 461.402 374.735 464.776L333.16 442.848C337.842 437.975 342.805 430.01 348.049 418.952C353.105 407.895 355.633 395.525 355.633 381.844C355.633 367.225 352.824 355.512 347.206 346.703C341.588 337.894 334.097 333.49 324.733 333.49C317.804 333.49 312.186 335.645 307.878 339.956C303.571 344.079 300.106 349.796 297.485 357.105C294.863 364.414 292.522 372.567 290.462 381.563C288.402 389.997 285.78 398.524 282.596 407.145C279.225 415.579 274.918 423.357 269.674 430.479C264.243 437.6 257.502 443.317 249.449 447.627C241.396 451.938 231.939 454.093 221.077 454.093C207.219 454.093 195.42 449.689 185.682 440.88C175.944 432.072 168.546 420.452 163.49 406.021C158.434 391.59 155.905 376.128 155.905 359.635Z" fill="black"/>
<path d="M292.147 178.796C304.32 178.421 315.276 175.516 325.014 170.081C334.752 164.646 342.43 156.681 348.048 146.186C353.479 135.503 356.195 122.477 356.195 107.109C356.195 93.8024 354.416 82.37 350.858 72.8118C347.112 63.0661 342.711 55.007 337.655 48.6348C332.411 42.2626 327.542 37.5773 323.047 34.5786L359.285 7.87153C367.15 13.6815 374.173 20.9909 380.353 29.7995C386.533 38.6081 391.309 49.572 394.68 62.6912C398.238 75.623 400.017 91.6471 400.017 110.764C400.017 135.878 394.867 157.712 384.567 176.266C374.267 194.82 359.753 209.252 341.026 219.559C322.298 229.68 300.387 234.74 275.293 234.74C252.82 234.74 232.594 230.055 214.616 220.684C196.45 211.313 182.124 197.725 171.636 179.921C161.149 161.929 155.905 140.376 155.905 115.262C155.905 91.8345 160.587 71.4997 169.951 54.2573C179.315 37.0149 192.798 23.7084 210.402 14.3375C227.819 4.77921 248.887 -5.21714e-06 273.607 -6.29769e-06C275.105 -6.36318e-06 278.195 0.0938748 282.877 0.281289C287.559 0.281289 290.649 0.468599 292.147 0.843428L292.147 178.796ZM248.325 56.2253C242.332 56.4127 235.497 58.4744 227.819 62.4101C220.14 66.1585 213.492 72.2495 207.874 80.6833C202.068 89.1171 199.166 100.362 199.166 114.418C199.166 128.85 201.975 140.563 207.593 149.559C213.024 158.555 219.579 165.208 227.257 169.519C234.748 173.83 241.771 176.36 248.325 177.109L248.325 56.2253Z" fill="black"/>
<path d="M586.997 2009.32L507.181 2009.32L507.181 1974.4C507.181 1965.73 508.854 1958.12 512.198 1951.58C515.543 1945.04 520.18 1939.94 526.109 1936.29C532.038 1932.64 539.032 1930.81 547.089 1930.81C555.071 1930.81 562.064 1932.64 568.07 1936.29C573.999 1939.94 578.636 1945.04 581.98 1951.58C585.325 1958.12 586.997 1965.73 586.997 1974.4L586.997 2009.32ZM574.455 1994.48L574.455 1975.09C574.455 1969.08 573.315 1963.9 571.034 1959.57C568.754 1955.15 565.561 1951.77 561.456 1949.41C557.351 1946.98 552.562 1945.76 547.089 1945.76C541.54 1945.76 536.751 1946.98 532.722 1949.41C528.618 1951.77 525.425 1955.15 523.145 1959.57C520.864 1963.9 519.724 1969.08 519.724 1975.09L519.724 1994.48L574.455 1994.48Z" fill="black"/>
<path d="M586.997 1903.63L507.181 1903.63L507.181 1888.8L586.997 1888.8L586.997 1903.63Z" fill="black"/>
<path d="M588.138 1818.47C588.138 1824.71 587.15 1830.45 585.173 1835.7C583.121 1840.87 580.27 1845.4 576.621 1849.28C572.897 1853.16 568.526 1856.16 563.509 1858.29C558.492 1860.42 553.019 1861.49 547.089 1861.49C541.16 1861.49 535.687 1860.42 530.67 1858.29C525.653 1856.16 521.32 1853.16 517.671 1849.28C513.947 1845.32 511.096 1840.72 509.12 1835.47C507.067 1830.22 506.041 1824.48 506.041 1818.24C506.041 1811.47 507.143 1805.38 509.348 1799.98C511.552 1794.5 514.783 1789.9 519.04 1786.17L528.162 1795.53C525.045 1798.65 522.764 1802.04 521.32 1805.69C519.8 1809.26 519.04 1813.22 519.04 1817.56C519.04 1821.74 519.724 1825.62 521.092 1829.19C522.46 1832.77 524.399 1835.85 526.907 1838.44C529.416 1841.02 532.38 1843.04 535.801 1844.49C539.222 1845.85 542.985 1846.54 547.089 1846.54C551.118 1846.54 554.843 1845.85 558.264 1844.49C561.684 1843.04 564.687 1841.02 567.271 1838.44C569.78 1835.85 571.718 1832.81 573.087 1829.31C574.455 1825.81 575.139 1821.93 575.139 1817.67C575.139 1813.71 574.531 1809.91 573.315 1806.26C572.022 1802.53 569.894 1798.99 566.929 1795.65L577.99 1787.2C581.334 1791.39 583.881 1796.25 585.629 1801.81C587.302 1807.29 588.138 1812.84 588.138 1818.47ZM576.051 1801.24L546.177 1801.24L546.177 1787.2L577.99 1787.2L576.051 1801.24Z" fill="black"/>
<path d="M586.997 1756.23L507.181 1756.23L507.181 1741.39L586.997 1741.39L586.997 1756.23Z" fill="black"/>
<path d="M586.997 1692.17L519.724 1692.17L519.724 1718.64L507.181 1718.64L507.181 1650.86L519.724 1650.86L519.724 1677.34L586.997 1677.34L586.997 1692.17Z" fill="black"/>
<path d="M586.997 1643.63L507.181 1607.68L507.181 1593.08L586.997 1557.02L586.997 1572.54L515.049 1603.46L515.049 1597.53L586.997 1628.34L586.997 1643.63ZM568.526 1627.08L556.895 1623.09L556.895 1579.95L568.526 1575.96L568.526 1627.08Z" fill="black"/>
<path d="M586.997 1535.45L507.181 1535.45L507.181 1520.61L574.455 1520.61L574.455 1478.85L586.997 1478.85L586.997 1535.45Z" fill="black"/>
<path d="M588.138 1388.02C588.138 1394.26 587.264 1400.23 585.515 1405.93C583.691 1411.64 581.372 1416.17 578.56 1419.51L567.043 1414.38C569.552 1411.18 571.642 1407.23 573.315 1402.51C574.987 1397.79 575.823 1392.96 575.823 1388.02C575.823 1383.83 575.367 1380.45 574.455 1377.86C573.543 1375.28 572.326 1373.37 570.806 1372.16C569.21 1370.94 567.423 1370.33 565.447 1370.33C563.015 1370.33 561.076 1371.21 559.632 1372.96C558.112 1374.71 556.933 1376.99 556.097 1379.8C555.185 1382.54 554.349 1385.62 553.589 1389.04C552.829 1392.39 551.954 1395.78 550.966 1399.2C549.902 1402.55 548.572 1405.63 546.975 1408.44C545.303 1411.18 543.099 1413.43 540.362 1415.18C537.625 1416.93 534.129 1417.8 529.872 1417.8C525.539 1417.8 521.586 1416.66 518.013 1414.38C514.365 1412.02 511.476 1408.48 509.348 1403.77C507.143 1398.97 506.041 1392.92 506.041 1385.62C506.041 1380.83 506.649 1376.07 507.865 1371.36C509.082 1366.64 510.83 1362.53 513.11 1359.03L524.627 1363.71C522.498 1367.29 520.94 1370.98 519.952 1374.78C518.888 1378.58 518.356 1382.24 518.356 1385.74C518.356 1389.84 518.85 1393.19 519.838 1395.78C520.826 1398.29 522.118 1400.15 523.715 1401.37C525.311 1402.51 527.135 1403.08 529.188 1403.08C531.62 1403.08 533.597 1402.24 535.117 1400.57C536.561 1398.82 537.701 1396.58 538.538 1393.84C539.374 1391.02 540.21 1387.9 541.046 1384.48C541.806 1381.06 542.68 1377.67 543.669 1374.32C544.657 1370.9 545.949 1367.82 547.545 1365.08C549.142 1362.27 551.308 1360.02 554.045 1358.35C556.781 1356.6 560.24 1355.72 564.421 1355.72C568.678 1355.72 572.631 1356.9 576.279 1359.26C579.852 1361.54 582.741 1365.08 584.945 1369.87C587.073 1374.67 588.138 1380.71 588.138 1388.02Z" fill="black"/>
<path d="M586.997 1314.51L519.724 1314.51L519.724 1340.99L507.181 1340.99L507.181 1273.21L519.724 1273.21L519.724 1299.68L586.997 1299.68L586.997 1314.51Z" fill="black"/>
<path d="M588.138 1217.76C588.138 1228.72 585.059 1237.32 578.902 1243.55C572.745 1249.72 563.851 1252.8 552.22 1252.8L507.181 1252.8L507.181 1237.96L551.65 1237.96C559.86 1237.96 565.827 1236.21 569.552 1232.71C573.277 1229.14 575.139 1224.12 575.139 1217.65C575.139 1211.18 573.277 1206.2 569.552 1202.7C565.827 1199.2 559.86 1197.45 551.65 1197.45L507.181 1197.45L507.181 1182.85L552.22 1182.85C563.851 1182.85 572.745 1185.97 578.902 1192.2C585.059 1198.37 588.138 1206.89 588.138 1217.76Z" fill="black"/>
<path d="M586.997 1150.66L507.181 1150.66L507.181 1115.74C507.181 1107.07 508.854 1099.46 512.198 1092.92C515.543 1086.38 520.18 1081.28 526.109 1077.63C532.038 1073.98 539.032 1072.15 547.089 1072.15C555.071 1072.15 562.064 1073.98 568.07 1077.63C573.999 1081.28 578.636 1086.38 581.98 1092.92C585.325 1099.46 586.997 1107.07 586.997 1115.74L586.997 1150.66ZM574.455 1135.83L574.455 1116.43C574.455 1110.42 573.315 1105.24 571.034 1100.91C568.754 1096.5 565.561 1093.11 561.456 1090.75C557.351 1088.32 552.562 1087.1 547.089 1087.1C541.54 1087.1 536.751 1088.32 532.722 1090.75C528.618 1093.11 525.425 1096.5 523.144 1100.91C520.864 1105.24 519.724 1110.42 519.724 1116.43L519.724 1135.83L574.455 1135.83Z" fill="black"/>
<path d="M586.997 1044.97L507.181 1044.97L507.181 1030.14L586.997 1030.14L586.997 1044.97Z" fill="black"/>
<path d="M588.138 959.696C588.138 965.934 587.111 971.677 585.059 976.926C583.007 982.175 580.156 986.74 576.507 990.62C572.783 994.499 568.45 997.504 563.509 999.634C558.492 1001.76 553.019 1002.83 547.089 1002.83C541.16 1002.83 535.725 1001.76 530.784 999.634C525.767 997.504 521.434 994.499 517.785 990.62C514.061 986.74 511.172 982.175 509.12 976.926C507.067 971.677 506.041 965.972 506.041 959.81C506.041 953.572 507.067 947.866 509.12 942.693C511.172 937.444 514.061 932.88 517.785 929C521.434 925.12 525.767 922.115 530.784 919.985C535.725 917.855 541.16 916.79 547.089 916.79C553.019 916.79 558.492 917.855 563.509 919.985C568.526 922.115 572.859 925.12 576.507 929C580.156 932.88 583.007 937.444 585.059 942.693C587.111 947.866 588.138 953.534 588.138 959.696ZM575.139 959.81C575.139 955.778 574.455 952.05 573.087 948.627C571.718 945.204 569.78 942.237 567.271 939.726C564.687 937.216 561.722 935.276 558.378 933.907C554.957 932.461 551.194 931.739 547.089 931.739C542.984 931.739 539.26 932.461 535.915 933.907C532.494 935.276 529.53 937.216 527.021 939.726C524.437 942.237 522.46 945.204 521.092 948.627C519.724 952.05 519.04 955.778 519.04 959.81C519.04 963.842 519.724 967.569 521.092 970.993C522.46 974.34 524.437 977.307 527.021 979.893C529.53 982.404 532.494 984.381 535.915 985.827C539.26 987.196 542.984 987.881 547.089 987.881C551.118 987.881 554.843 987.196 558.264 985.827C561.684 984.381 564.687 982.404 567.271 979.893C569.78 977.383 571.718 974.416 573.087 970.993C574.455 967.569 575.139 963.842 575.139 959.81Z" fill="black"/>
<path d="M491.515 817.761L491.515 728.703L625 728.703L625 817.761L491.515 817.761Z" fill="black"/>
</svg>
