<svg width="1315" height="522" viewBox="0 0 1315 522" fill="none" xmlns="http://www.w3.org/2000/svg">
<path d="M33.5 482.982L33.5 403.166H68.4177C77.0901 403.166 84.6975 404.839 91.2398 408.183C97.7817 411.528 102.879 416.165 106.531 422.094C110.182 428.023 112.008 435.017 112.008 443.074C112.008 451.056 110.182 458.049 106.531 464.055C102.879 469.984 97.7817 474.621 91.2398 477.965C84.6975 481.31 77.0901 482.982 68.4177 482.982H33.5ZM48.3343 470.44H67.7331C73.7429 470.44 78.9159 469.3 83.2521 467.019C87.6644 464.739 91.0496 461.546 93.4079 457.441C95.8427 453.336 97.0597 448.547 97.0597 443.074C97.0597 437.525 95.8427 432.736 93.4079 428.707C91.0496 424.603 87.6644 421.41 83.2521 419.13C78.9159 416.849 73.7429 415.709 67.7331 415.709H48.3343L48.3343 470.44Z" fill="white"/>
<path d="M139.186 482.982V403.166H154.02V482.982H139.186Z" fill="white"/>
<path d="M224.351 484.123C218.113 484.123 212.369 483.135 207.12 481.158C201.947 479.106 197.421 476.255 193.541 472.606C189.661 468.882 186.656 464.511 184.526 459.494C182.396 454.477 181.331 449.004 181.331 443.074C181.331 437.145 182.396 431.672 184.526 426.655C186.656 421.638 189.661 417.305 193.541 413.656C197.497 409.932 202.099 407.081 207.348 405.105C212.597 403.052 218.341 402.026 224.579 402.026C231.35 402.026 237.435 403.128 242.837 405.333C248.314 407.537 252.916 410.768 256.644 415.025L247.287 424.147C244.168 421.03 240.783 418.749 237.131 417.305C233.556 415.785 229.6 415.025 225.264 415.025C221.08 415.025 217.2 415.709 213.624 417.077C210.049 418.445 206.968 420.384 204.381 422.892C201.795 425.401 199.779 428.365 198.334 431.786C196.964 435.207 196.28 438.97 196.28 443.074C196.28 447.103 196.964 450.828 198.334 454.249C199.779 457.669 201.795 460.672 204.381 463.256C206.968 465.765 210.011 467.703 213.51 469.072C217.01 470.44 220.889 471.124 225.15 471.124C229.105 471.124 232.909 470.516 236.561 469.3C240.288 468.007 243.826 465.879 247.173 462.914L255.617 473.975C251.433 477.319 246.564 479.866 241.011 481.614C235.534 483.287 229.98 484.123 224.351 484.123ZM241.581 472.036V442.162H255.617V473.975L241.581 472.036Z" fill="white"/>
<path d="M286.594 482.982V403.166H301.428V482.982H286.594Z" fill="white"/>
<path d="M350.648 482.982V415.709H324.174V403.166H391.956V415.709H365.482V482.982H350.648Z" fill="white"/>
<path d="M399.191 482.982L435.136 403.166H449.742L485.801 482.982H470.282L439.358 411.034H445.292L414.482 482.982H399.191ZM415.737 464.511L419.731 452.88H462.865L466.859 464.511H415.737Z" fill="white"/>
<path d="M507.37 482.982V403.166H522.205V470.44H563.969V482.982H507.37Z" fill="white"/>
<path d="M654.801 484.123C648.563 484.123 642.591 483.249 636.886 481.5C631.18 479.676 626.654 477.357 623.307 474.545L628.442 463.028C631.637 465.537 635.592 467.627 640.309 469.3C645.026 470.972 649.856 471.808 654.801 471.808C658.985 471.808 662.37 471.352 664.957 470.44C667.543 469.528 669.445 468.311 670.662 466.791C671.88 465.195 672.488 463.408 672.488 461.432C672.488 459 671.613 457.061 669.864 455.617C668.114 454.097 665.832 452.918 663.017 452.082C660.278 451.17 657.197 450.334 653.774 449.574C650.427 448.814 647.042 447.939 643.618 446.951C640.271 445.887 637.19 444.557 634.375 442.96C631.637 441.288 629.392 439.084 627.643 436.347C625.893 433.61 625.018 430.114 625.018 425.857C625.018 421.524 626.159 417.571 628.442 413.999C630.8 410.35 634.337 407.461 639.054 405.333C643.846 403.128 649.894 402.026 657.197 402.026C661.99 402.026 666.745 402.634 671.461 403.85C676.178 405.067 680.286 406.815 683.785 409.095L679.107 420.612C675.531 418.483 671.842 416.925 668.038 415.937C664.234 414.873 660.583 414.341 657.083 414.341C652.975 414.341 649.628 414.835 647.042 415.823C644.531 416.811 642.667 418.103 641.45 419.7C640.309 421.296 639.739 423.12 639.739 425.173C639.739 427.605 640.575 429.582 642.249 431.102C643.999 432.546 646.243 433.687 648.981 434.523C651.796 435.359 654.915 436.195 658.338 437.031C661.762 437.791 665.147 438.665 668.494 439.654C671.918 440.642 674.999 441.934 677.737 443.53C680.552 445.127 682.796 447.293 684.47 450.03C686.219 452.766 687.094 456.225 687.094 460.406C687.094 464.663 685.915 468.616 683.557 472.264C681.275 475.837 677.737 478.726 672.945 480.93C668.152 483.058 662.104 484.123 654.801 484.123Z" fill="white"/>
<path d="M728.304 482.982V415.709H701.831V403.166H769.612V415.709H743.139V482.982H728.304Z" fill="white"/>
<path d="M825.055 484.123C814.1 484.123 805.504 481.044 799.266 474.887C793.104 468.73 790.023 459.836 790.023 448.205V403.166H804.857V447.635C804.857 455.845 806.607 461.812 810.106 465.537C813.682 469.262 818.702 471.124 825.169 471.124C831.635 471.124 836.618 469.262 840.117 465.537C843.617 461.812 845.366 455.845 845.366 447.635V403.166H859.972V448.205C859.972 459.836 856.853 468.73 850.615 474.887C844.453 481.044 835.933 484.123 825.055 484.123Z" fill="white"/>
<path d="M892.159 482.982V403.166H927.076C935.749 403.166 943.356 404.839 949.899 408.183C956.441 411.528 961.538 416.165 965.189 422.094C968.841 428.023 970.667 435.017 970.667 443.074C970.667 451.056 968.841 458.049 965.189 464.055C961.538 469.984 956.441 474.621 949.899 477.965C943.356 481.31 935.749 482.982 927.076 482.982H892.159ZM906.993 470.44H926.392C932.402 470.44 937.575 469.3 941.911 467.019C946.323 464.739 949.708 461.546 952.067 457.441C954.501 453.336 955.718 448.547 955.718 443.074C955.718 437.525 954.501 432.736 952.067 428.707C949.708 424.603 946.323 421.41 941.911 419.13C937.575 416.849 932.402 415.709 926.392 415.709H906.993V470.44Z" fill="white"/>
<path d="M997.849 482.982V403.166H1012.68V482.982H997.849Z" fill="white"/>
<path d="M1083.12 484.123C1076.89 484.123 1071.14 483.096 1065.89 481.044C1060.64 478.992 1056.08 476.141 1052.2 472.492C1048.32 468.768 1045.32 464.435 1043.19 459.494C1041.06 454.477 1039.99 449.004 1039.99 443.074C1039.99 437.145 1041.06 431.71 1043.19 426.769C1045.32 421.752 1048.32 417.419 1052.2 413.77C1056.08 410.046 1060.64 407.157 1065.89 405.105C1071.14 403.052 1076.85 402.026 1083.01 402.026C1089.25 402.026 1094.95 403.052 1100.13 405.105C1105.38 407.157 1109.94 410.046 1113.82 413.77C1117.7 417.419 1120.7 421.752 1122.83 426.769C1124.96 431.71 1126.03 437.145 1126.03 443.074C1126.03 449.004 1124.96 454.477 1122.83 459.494C1120.7 464.511 1117.7 468.844 1113.82 472.492C1109.94 476.141 1105.38 478.992 1100.13 481.044C1094.95 483.096 1089.29 484.123 1083.12 484.123ZM1083.01 471.124C1087.04 471.124 1090.77 470.44 1094.19 469.072C1097.62 467.703 1100.58 465.765 1103.09 463.256C1105.6 460.672 1107.54 457.707 1108.91 454.363C1110.36 450.942 1111.08 447.179 1111.08 443.074C1111.08 438.97 1110.36 435.245 1108.91 431.9C1107.54 428.479 1105.6 425.515 1103.09 423.006C1100.58 420.422 1097.62 418.445 1094.19 417.077C1090.77 415.709 1087.04 415.025 1083.01 415.025C1078.98 415.025 1075.25 415.709 1071.83 417.077C1068.48 418.445 1065.51 420.422 1062.93 423.006C1060.42 425.515 1058.44 428.479 1056.99 431.9C1055.62 435.245 1054.94 438.97 1054.94 443.074C1054.94 447.103 1055.62 450.828 1056.99 454.249C1058.44 457.669 1060.42 460.672 1062.93 463.256C1065.44 465.765 1068.4 467.703 1071.83 469.072C1075.25 470.44 1078.98 471.124 1083.01 471.124Z" fill="white"/>
<path d="M1225.06 387.5H1314.12V520.985H1225.06V387.5Z" fill="white"/>
<path d="M199.52 21.984L243.788 21.984L243.788 282.384H199.52L199.52 168.924L74.156 168.924L74.156 282.384H30.26L30.26 21.984L74.156 21.984L74.156 135.072L199.52 135.072L199.52 21.984ZM471.964 168.18L471.964 203.892L331.72 203.892C333.952 222.492 340.648 235.264 351.808 242.208C363.216 249.152 380.576 252.624 403.888 252.624C413.56 252.624 423.48 251.756 433.648 250.02C444.064 248.036 452.992 245.556 460.432 242.58V274.944C451.752 278.664 441.832 281.516 430.672 283.5C419.512 285.236 407.608 286.104 394.96 286.104C361.48 286.104 335.564 277.92 317.212 261.552C298.86 245.184 289.684 220.012 289.684 186.036C289.684 155.284 297.496 131.104 313.12 113.496C328.744 95.64 352.428 86.712 384.172 86.712C413.436 86.712 435.384 94.276 450.016 109.404C464.648 124.532 471.964 144.124 471.964 168.18ZM331.72 175.248H433.276V161.856C433.276 148.464 429.556 138.172 422.116 130.98C414.924 123.54 402.772 119.82 385.66 119.82C365.076 119.82 350.94 124.284 343.252 133.212C335.564 141.892 331.72 155.904 331.72 175.248ZM689.993 148.464C702.641 151.936 712.685 158.26 720.125 167.436C727.565 176.364 731.285 189.508 731.285 206.868C731.285 232.412 724.465 251.384 710.825 263.784C697.185 276.184 677.097 282.384 650.561 282.384L518.873 282.384V21.984L644.981 21.984C671.021 21.984 690.117 28.06 702.269 40.212C714.669 52.116 720.869 69.228 720.869 91.548C720.869 105.436 718.017 117.216 712.313 126.888C706.857 136.312 699.417 143.504 689.993 148.464ZM562.769 55.092V133.212L639.029 133.212C653.661 133.212 664.201 129.74 670.649 122.796C677.097 115.852 680.321 106.552 680.321 94.896C680.321 81.504 676.973 71.584 670.277 65.136C663.829 58.44 651.801 55.092 634.193 55.092L562.769 55.092ZM641.261 250.02C656.885 250.02 668.293 246.672 675.485 239.976C682.925 233.28 686.645 221.748 686.645 205.38C686.645 191.988 683.049 181.944 675.857 175.248C668.665 168.552 655.645 165.204 636.797 165.204L562.769 165.204V250.02L641.261 250.02ZM949.678 168.18V203.892H809.434C811.666 222.492 818.362 235.264 829.522 242.208C840.93 249.152 858.29 252.624 881.602 252.624C891.274 252.624 901.194 251.756 911.362 250.02C921.778 248.036 930.706 245.556 938.146 242.58V274.944C929.466 278.664 919.546 281.516 908.386 283.5C897.226 285.236 885.322 286.104 872.674 286.104C839.194 286.104 813.278 277.92 794.926 261.552C776.574 245.184 767.398 220.012 767.398 186.036C767.398 155.284 775.21 131.104 790.834 113.496C806.458 95.64 830.142 86.712 861.886 86.712C891.15 86.712 913.098 94.276 927.73 109.404C942.362 124.532 949.678 144.124 949.678 168.18ZM809.434 175.248H910.99V161.856C910.99 148.464 907.27 138.172 899.83 130.98C892.638 123.54 880.486 119.82 863.374 119.82C842.79 119.82 828.654 124.284 820.966 133.212C813.278 141.892 809.434 155.904 809.434 175.248ZM1116.74 133.212C1126.17 133.212 1134.85 133.832 1142.78 135.072C1150.72 136.312 1157.54 137.924 1163.24 139.908C1169.2 141.892 1174.53 144.496 1179.24 147.72C1183.95 150.696 1187.8 153.796 1190.77 157.02C1194 159.996 1196.72 163.344 1198.96 167.064C1201.44 170.784 1203.17 174.256 1204.16 177.48C1205.4 180.704 1206.4 184.176 1207.14 187.896C1207.88 191.368 1208.38 194.344 1208.63 196.824C1208.88 199.056 1209 201.412 1209 203.892C1209 231.42 1202.18 251.384 1188.54 263.784C1174.9 276.184 1154.81 282.384 1128.28 282.384H996.588V21.984L1178.12 21.984V55.092L1040.48 55.092V133.212H1116.74ZM1118.98 248.16C1134.6 248.16 1146.01 244.936 1153.2 238.488C1160.64 231.792 1164.36 220.26 1164.36 203.892C1164.36 191.492 1160.76 181.944 1153.57 175.248C1146.63 168.552 1133.61 165.204 1114.51 165.204H1040.86V248.16H1118.98Z" fill="white"/>
</svg>
