<svg width="521" height="1315" viewBox="0 0 521 1315" fill="none" xmlns="http://www.w3.org/2000/svg">
<path d="M482.482 1281.5L402.666 1281.5L402.666 1246.58C402.666 1237.91 404.339 1230.3 407.683 1223.76C411.028 1217.22 415.665 1212.12 421.594 1208.47C427.523 1204.82 434.517 1202.99 442.574 1202.99C450.556 1202.99 457.549 1204.82 463.555 1208.47C469.484 1212.12 474.121 1217.22 477.465 1223.76C480.81 1230.3 482.482 1237.91 482.482 1246.58L482.482 1281.5ZM469.94 1266.67L469.94 1247.27C469.94 1241.26 468.8 1236.08 466.519 1231.75C464.239 1227.34 461.046 1223.95 456.941 1221.59C452.836 1219.16 448.047 1217.94 442.574 1217.94C437.025 1217.94 432.236 1219.16 428.207 1221.59C424.103 1223.95 420.91 1227.34 418.63 1231.75C416.349 1236.08 415.209 1241.26 415.209 1247.27L415.209 1266.67L469.94 1266.67Z" fill="black"/>
<path d="M482.482 1175.81L402.666 1175.81L402.666 1160.98L482.482 1160.98L482.482 1175.81Z" fill="black"/>
<path d="M483.623 1090.65C483.623 1096.89 482.635 1102.63 480.658 1107.88C478.606 1113.05 475.755 1117.58 472.106 1121.46C468.382 1125.34 464.011 1128.34 458.994 1130.47C453.977 1132.6 448.504 1133.67 442.574 1133.67C436.645 1133.67 431.172 1132.6 426.155 1130.47C421.138 1128.34 416.805 1125.34 413.156 1121.46C409.432 1117.5 406.581 1112.9 404.605 1107.65C402.552 1102.4 401.526 1096.66 401.526 1090.42C401.526 1083.65 402.628 1077.57 404.833 1072.16C407.037 1066.69 410.268 1062.08 414.525 1058.36L423.647 1067.71C420.53 1070.83 418.249 1074.22 416.805 1077.87C415.285 1081.44 414.525 1085.4 414.525 1089.74C414.525 1093.92 415.209 1097.8 416.577 1101.38C417.945 1104.95 419.884 1108.03 422.392 1110.62C424.901 1113.21 427.865 1115.22 431.286 1116.67C434.707 1118.04 438.47 1118.72 442.574 1118.72C446.603 1118.72 450.328 1118.04 453.749 1116.67C457.169 1115.22 460.172 1113.21 462.756 1110.62C465.265 1108.03 467.203 1104.99 468.572 1101.49C469.94 1097.99 470.624 1094.11 470.624 1089.85C470.624 1085.9 470.016 1082.09 468.8 1078.44C467.507 1074.71 465.379 1071.17 462.414 1067.83L473.475 1059.38C476.819 1063.57 479.366 1068.44 481.114 1073.99C482.787 1079.47 483.623 1085.02 483.623 1090.65ZM471.536 1073.42L441.662 1073.42L441.662 1059.38L473.475 1059.38L471.536 1073.42Z" fill="black"/>
<path d="M482.482 1028.41L402.666 1028.41L402.666 1013.57L482.482 1013.57L482.482 1028.41Z" fill="black"/>
<path d="M482.482 964.352L415.209 964.352L415.209 990.826L402.666 990.826L402.666 923.044L415.209 923.044L415.209 949.518L482.482 949.518L482.482 964.352Z" fill="black"/>
<path d="M482.482 915.809L402.666 879.864L402.666 865.258L482.482 829.199L482.482 844.718L410.534 875.642L410.534 869.708L482.482 900.518L482.482 915.809ZM464.011 899.263L452.38 895.269L452.38 852.135L464.011 848.141L464.011 899.263Z" fill="black"/>
<path d="M482.482 807.63L402.666 807.63L402.666 792.795L469.94 792.795L469.94 751.031L482.482 751.031L482.482 807.63Z" fill="black"/>
<path d="M483.623 660.199C483.623 666.437 482.749 672.409 481 678.114C479.176 683.82 476.857 688.346 474.045 691.693L462.528 686.558C465.037 683.363 467.127 679.408 468.8 674.691C470.472 669.974 471.308 665.144 471.308 660.199C471.308 656.015 470.852 652.63 469.94 650.043C469.028 647.457 467.811 645.555 466.291 644.338C464.695 643.12 462.908 642.512 460.932 642.512C458.5 642.512 456.561 643.387 455.117 645.136C453.597 646.886 452.418 649.168 451.582 651.983C450.67 654.722 449.834 657.803 449.074 661.226C448.314 664.573 447.439 667.958 446.451 671.382C445.387 674.729 444.057 677.81 442.46 680.625C440.788 683.363 438.584 685.608 435.847 687.357C433.11 689.107 429.614 689.982 425.357 689.982C421.024 689.982 417.071 688.841 413.499 686.558C409.85 684.2 406.961 680.663 404.833 675.946C402.628 671.154 401.526 665.106 401.526 657.803C401.526 653.01 402.134 648.255 403.35 643.539C404.567 638.822 406.315 634.714 408.595 631.215L420.112 635.893C417.983 639.469 416.425 643.158 415.437 646.962C414.373 650.766 413.841 654.417 413.841 657.917C413.841 662.025 414.335 665.372 415.323 667.958C416.311 670.469 417.603 672.333 419.2 673.55C420.796 674.691 422.62 675.261 424.673 675.261C427.105 675.261 429.082 674.425 430.602 672.751C432.046 671.001 433.187 668.757 434.023 666.019C434.859 663.204 435.695 660.085 436.531 656.662C437.291 653.238 438.165 649.853 439.154 646.506C440.142 643.082 441.434 640.001 443.03 637.263C444.627 634.448 446.793 632.204 449.53 630.53C452.266 628.781 455.725 627.906 459.906 627.906C464.163 627.906 468.116 629.085 471.764 631.443C475.337 633.725 478.226 637.263 480.43 642.055C482.558 646.848 483.623 652.896 483.623 660.199Z" fill="black"/>
<path d="M482.482 586.696L415.209 586.696L415.209 613.169L402.666 613.169L402.666 545.388L415.209 545.388L415.209 571.861L482.482 571.861L482.482 586.696Z" fill="black"/>
<path d="M483.623 489.945C483.623 500.9 480.544 509.496 474.387 515.734C468.23 521.896 459.336 524.977 447.705 524.977L402.666 524.977L402.666 510.143L447.135 510.143C455.345 510.143 461.312 508.393 465.037 504.894C468.762 501.318 470.624 496.298 470.624 489.831C470.624 483.365 468.762 478.382 465.037 474.883C461.312 471.383 455.345 469.634 447.135 469.634L402.666 469.634L402.666 455.028L447.705 455.028C459.336 455.028 468.23 458.147 474.387 464.385C480.544 470.547 483.623 479.067 483.623 489.945Z" fill="black"/>
<path d="M482.482 422.841L402.666 422.841L402.666 387.924C402.666 379.251 404.339 371.644 407.683 365.101C411.028 358.559 415.665 353.462 421.594 349.811C427.523 346.159 434.517 344.333 442.574 344.333C450.556 344.333 457.549 346.159 463.555 349.811C469.484 353.462 474.121 358.559 477.465 365.101C480.81 371.644 482.482 379.251 482.482 387.924L482.482 422.841ZM469.94 408.007L469.94 388.608C469.94 382.598 468.8 377.425 466.519 373.089C464.239 368.677 461.046 365.292 456.941 362.933C452.836 360.499 448.047 359.282 442.574 359.282C437.025 359.282 432.236 360.499 428.207 362.933C424.103 365.292 420.91 368.677 418.63 373.089C416.349 377.425 415.209 382.598 415.209 388.608L415.209 408.007L469.94 408.007Z" fill="black"/>
<path d="M482.482 317.151L402.666 317.151L402.666 302.321L482.482 302.321L482.482 317.151Z" fill="black"/>
<path d="M483.623 231.881C483.623 238.111 482.596 243.861 480.544 249.111C478.492 254.361 475.641 258.921 471.992 262.801C468.268 266.681 463.935 269.681 458.994 271.811C453.977 273.941 448.504 275.011 442.574 275.011C436.645 275.011 431.21 273.941 426.269 271.811C421.252 269.681 416.919 266.681 413.27 262.801C409.546 258.921 406.657 254.361 404.605 249.111C402.552 243.861 401.526 238.151 401.526 231.991C401.526 225.751 402.552 220.051 404.605 214.871C406.657 209.621 409.546 205.061 413.27 201.181C416.919 197.301 421.252 194.301 426.269 192.171C431.21 190.041 436.645 188.971 442.574 188.971C448.504 188.971 453.977 190.041 458.994 192.171C464.011 194.301 468.344 197.301 471.992 201.181C475.641 205.061 478.492 209.621 480.544 214.871C482.596 220.051 483.623 225.711 483.623 231.881ZM470.624 231.991C470.624 227.961 469.94 224.231 468.572 220.811C467.203 217.381 465.265 214.421 462.756 211.911C460.172 209.401 457.207 207.461 453.863 206.091C450.442 204.641 446.679 203.921 442.574 203.921C438.47 203.921 434.745 204.641 431.4 206.091C427.979 207.461 425.015 209.401 422.506 211.911C419.922 214.421 417.945 217.381 416.577 220.811C415.209 224.231 414.525 227.961 414.525 231.991C414.525 236.021 415.209 239.751 416.577 243.171C417.945 246.521 419.922 249.491 422.506 252.071C425.015 254.581 427.979 256.561 431.4 258.011C434.745 259.381 438.47 260.061 442.574 260.061C446.603 260.061 450.328 259.381 453.749 258.011C457.169 256.561 460.172 254.581 462.756 252.071C465.265 249.561 467.203 246.601 468.572 243.171C469.94 239.751 470.624 236.021 470.624 231.991Z" fill="black"/>
<path d="M387 89.9414L387 0.881348L520.485 0.881342L520.485 89.9414L387 89.9414Z" fill="black"/>
<path d="M21.484 1115.48L21.484 1071.21L281.884 1071.21L281.884 1115.48L168.424 1115.48L168.424 1240.84L281.884 1240.84L281.884 1284.74L21.484 1284.74L21.484 1240.84L134.572 1240.84L134.572 1115.48L21.484 1115.48ZM167.68 843.036L203.392 843.036L203.392 983.28C221.992 981.048 234.764 974.352 241.708 963.192C248.652 951.784 252.124 934.424 252.124 911.112C252.124 901.44 251.256 891.52 249.52 881.352C247.536 870.936 245.056 862.008 242.08 854.568L274.444 854.568C278.164 863.248 281.016 873.168 283 884.328C284.736 895.488 285.604 907.392 285.604 920.04C285.604 953.52 277.42 979.436 261.052 997.788C244.684 1016.14 219.512 1025.32 185.536 1025.32C154.784 1025.32 130.604 1017.5 112.996 1001.88C95.14 986.256 86.212 962.572 86.212 930.828C86.212 901.564 93.776 879.616 108.904 864.984C124.032 850.352 143.624 843.036 167.68 843.036ZM174.748 983.28L174.748 881.724L161.356 881.724C147.964 881.724 137.672 885.444 130.48 892.884C123.04 900.076 119.32 912.228 119.32 929.34C119.32 949.924 123.784 964.06 132.712 971.748C141.392 979.436 155.404 983.28 174.748 983.28ZM147.964 625.007C151.436 612.359 157.76 602.315 166.936 594.875C175.864 587.435 189.008 583.715 206.368 583.715C231.912 583.715 250.884 590.535 263.284 604.175C275.684 617.815 281.884 637.903 281.884 664.439L281.884 796.127L21.484 796.127L21.484 670.019C21.484 643.979 27.56 624.883 39.712 612.731C51.616 600.331 68.728 594.131 91.048 594.131C104.936 594.131 116.716 596.983 126.388 602.687C135.812 608.143 143.004 615.583 147.964 625.007ZM54.592 752.231L132.712 752.231L132.712 675.971C132.712 661.339 129.24 650.799 122.296 644.351C115.352 637.903 106.052 634.679 94.396 634.679C81.004 634.679 71.084 638.027 64.636 644.723C57.94 651.171 54.592 663.199 54.592 680.807L54.592 752.231ZM249.52 673.739C249.52 658.115 246.172 646.707 239.476 639.515C232.78 632.075 221.248 628.355 204.88 628.355C191.488 628.355 181.444 631.951 174.748 639.143C168.052 646.335 164.704 659.355 164.704 678.203L164.704 752.231L249.52 752.231L249.52 673.739ZM167.68 365.322L203.392 365.322L203.392 505.566C221.992 503.334 234.764 496.638 241.708 485.478C248.652 474.07 252.124 456.71 252.124 433.398C252.124 423.726 251.256 413.806 249.52 403.638C247.536 393.222 245.056 384.294 242.08 376.854L274.444 376.854C278.164 385.534 281.016 395.454 283 406.614C284.736 417.774 285.604 429.678 285.604 442.326C285.604 475.806 277.42 501.722 261.052 520.074C244.684 538.426 219.512 547.602 185.536 547.602C154.784 547.602 130.604 539.79 112.996 524.166C95.14 508.542 86.2119 484.858 86.2119 453.114C86.2119 423.85 93.7759 401.902 108.904 387.27C124.032 372.638 143.624 365.322 167.68 365.322ZM174.748 505.566L174.748 404.01L161.356 404.01C147.964 404.01 137.672 407.73 130.48 415.17C123.04 422.362 119.32 434.514 119.32 451.626C119.32 472.21 123.784 486.346 132.712 494.034C141.392 501.722 155.404 505.566 174.748 505.566ZM132.712 198.256C132.712 188.832 133.332 180.152 134.572 172.216C135.812 164.28 137.424 157.46 139.408 151.756C141.392 145.804 143.996 140.472 147.22 135.76C150.196 131.048 153.296 127.204 156.52 124.228C159.496 121.004 162.844 118.276 166.564 116.044C170.284 113.564 173.756 111.828 176.98 110.836C180.204 109.596 183.676 108.604 187.396 107.86C190.868 107.116 193.844 106.62 196.324 106.372C198.556 106.124 200.912 106 203.392 106C230.92 106 250.884 112.82 263.284 126.46C275.684 140.1 281.884 160.188 281.884 186.724L281.884 318.412L21.484 318.412L21.4839 136.876L54.5919 136.876L54.5919 274.516L132.712 274.516L132.712 198.256ZM247.66 196.024C247.66 180.4 244.436 168.992 237.988 161.8C231.292 154.36 219.76 150.64 203.392 150.64C190.992 150.64 181.444 154.236 174.748 161.428C168.052 168.372 164.704 181.392 164.704 200.488L164.704 274.144L247.66 274.144L247.66 196.024Z" fill="black"/>
</svg>
