<svg width="522" height="1315" viewBox="0 0 522 1315" fill="none" xmlns="http://www.w3.org/2000/svg">
<path d="M482.982 1281.5L403.166 1281.5L403.166 1246.58C403.166 1237.91 404.839 1230.3 408.183 1223.76C411.528 1217.22 416.165 1212.12 422.094 1208.47C428.023 1204.82 435.017 1202.99 443.074 1202.99C451.056 1202.99 458.049 1204.82 464.055 1208.47C469.984 1212.12 474.621 1217.22 477.965 1223.76C481.31 1230.3 482.982 1237.91 482.982 1246.58L482.982 1281.5ZM470.44 1266.67L470.44 1247.27C470.44 1241.26 469.3 1236.08 467.019 1231.75C464.739 1227.34 461.546 1223.95 457.441 1221.59C453.336 1219.16 448.547 1217.94 443.074 1217.94C437.525 1217.94 432.736 1219.16 428.707 1221.59C424.603 1223.95 421.41 1227.34 419.13 1231.75C416.849 1236.08 415.709 1241.26 415.709 1247.27L415.709 1266.67L470.44 1266.67Z" fill="white"/>
<path d="M482.982 1175.81L403.166 1175.81L403.166 1160.98L482.982 1160.98L482.982 1175.81Z" fill="white"/>
<path d="M484.123 1090.65C484.123 1096.89 483.135 1102.63 481.158 1107.88C479.106 1113.05 476.255 1117.58 472.606 1121.46C468.882 1125.34 464.511 1128.34 459.494 1130.47C454.477 1132.6 449.004 1133.67 443.074 1133.67C437.145 1133.67 431.672 1132.6 426.655 1130.47C421.638 1128.34 417.305 1125.34 413.656 1121.46C409.932 1117.5 407.081 1112.9 405.105 1107.65C403.052 1102.4 402.026 1096.66 402.026 1090.42C402.026 1083.65 403.128 1077.57 405.333 1072.16C407.537 1066.69 410.768 1062.08 415.025 1058.36L424.147 1067.71C421.03 1070.83 418.749 1074.22 417.305 1077.87C415.785 1081.44 415.025 1085.4 415.025 1089.74C415.025 1093.92 415.709 1097.8 417.077 1101.38C418.445 1104.95 420.384 1108.03 422.892 1110.62C425.401 1113.21 428.365 1115.22 431.786 1116.67C435.207 1118.04 438.97 1118.72 443.074 1118.72C447.103 1118.72 450.828 1118.04 454.249 1116.67C457.669 1115.22 460.672 1113.21 463.256 1110.62C465.765 1108.03 467.703 1104.99 469.072 1101.49C470.44 1097.99 471.124 1094.11 471.124 1089.85C471.124 1085.9 470.516 1082.09 469.3 1078.44C468.007 1074.71 465.879 1071.17 462.914 1067.83L473.975 1059.38C477.319 1063.57 479.866 1068.44 481.614 1073.99C483.287 1079.47 484.123 1085.02 484.123 1090.65ZM472.036 1073.42L442.162 1073.42L442.162 1059.38L473.975 1059.38L472.036 1073.42Z" fill="white"/>
<path d="M482.982 1028.41L403.166 1028.41L403.166 1013.57L482.982 1013.57L482.982 1028.41Z" fill="white"/>
<path d="M482.982 964.352L415.709 964.352L415.709 990.826L403.166 990.826L403.166 923.044L415.709 923.044L415.709 949.518L482.982 949.518L482.982 964.352Z" fill="white"/>
<path d="M482.982 915.809L403.166 879.864L403.166 865.258L482.982 829.199L482.982 844.718L411.034 875.642L411.034 869.708L482.982 900.518L482.982 915.809ZM464.511 899.263L452.88 895.269L452.88 852.135L464.511 848.141L464.511 899.263Z" fill="white"/>
<path d="M482.982 807.63L403.166 807.63L403.166 792.795L470.44 792.795L470.44 751.031L482.982 751.031L482.982 807.63Z" fill="white"/>
<path d="M484.123 660.199C484.123 666.437 483.249 672.409 481.5 678.114C479.676 683.82 477.357 688.346 474.545 691.693L463.028 686.558C465.537 683.363 467.627 679.408 469.3 674.691C470.972 669.974 471.808 665.144 471.808 660.199C471.808 656.015 471.352 652.63 470.44 650.043C469.528 647.457 468.311 645.555 466.791 644.338C465.195 643.12 463.408 642.512 461.432 642.512C459 642.512 457.061 643.387 455.617 645.136C454.097 646.886 452.918 649.168 452.082 651.983C451.17 654.722 450.334 657.803 449.574 661.226C448.814 664.573 447.939 667.958 446.951 671.382C445.887 674.729 444.557 677.81 442.96 680.625C441.288 683.363 439.084 685.608 436.347 687.357C433.61 689.107 430.114 689.982 425.857 689.982C421.524 689.982 417.571 688.841 413.999 686.558C410.35 684.2 407.461 680.663 405.333 675.946C403.128 671.154 402.026 665.106 402.026 657.803C402.026 653.01 402.634 648.255 403.85 643.539C405.067 638.822 406.815 634.714 409.095 631.215L420.612 635.893C418.483 639.469 416.925 643.158 415.937 646.962C414.873 650.766 414.341 654.417 414.341 657.917C414.341 662.025 414.835 665.372 415.823 667.958C416.811 670.469 418.103 672.333 419.7 673.55C421.296 674.691 423.12 675.261 425.173 675.261C427.605 675.261 429.582 674.425 431.102 672.751C432.546 671.001 433.687 668.757 434.523 666.019C435.359 663.204 436.195 660.085 437.031 656.662C437.791 653.238 438.665 649.853 439.654 646.506C440.642 643.082 441.934 640.001 443.53 637.263C445.127 634.448 447.293 632.204 450.03 630.53C452.766 628.781 456.225 627.906 460.406 627.906C464.663 627.906 468.616 629.085 472.264 631.443C475.837 633.725 478.726 637.263 480.93 642.055C483.058 646.848 484.123 652.896 484.123 660.199Z" fill="white"/>
<path d="M482.982 586.696L415.709 586.696L415.709 613.169L403.166 613.169L403.166 545.388L415.709 545.388L415.709 571.861L482.982 571.861L482.982 586.696Z" fill="white"/>
<path d="M484.123 489.945C484.123 500.9 481.044 509.496 474.887 515.734C468.73 521.896 459.836 524.977 448.205 524.977L403.166 524.977L403.166 510.143L447.635 510.143C455.845 510.143 461.812 508.393 465.537 504.894C469.262 501.318 471.124 496.298 471.124 489.831C471.124 483.365 469.262 478.382 465.537 474.883C461.812 471.383 455.845 469.634 447.635 469.634L403.166 469.634L403.166 455.028L448.205 455.028C459.836 455.028 468.73 458.147 474.887 464.385C481.044 470.547 484.123 479.067 484.123 489.945Z" fill="white"/>
<path d="M482.982 422.841L403.166 422.841L403.166 387.924C403.166 379.251 404.839 371.644 408.183 365.101C411.528 358.559 416.165 353.462 422.094 349.811C428.023 346.159 435.017 344.333 443.074 344.333C451.056 344.333 458.049 346.159 464.055 349.811C469.984 353.462 474.621 358.559 477.965 365.101C481.31 371.644 482.982 379.251 482.982 387.924L482.982 422.841ZM470.44 408.007L470.44 388.608C470.44 382.598 469.3 377.425 467.019 373.089C464.739 368.677 461.546 365.292 457.441 362.933C453.336 360.499 448.547 359.282 443.074 359.282C437.525 359.282 432.736 360.499 428.707 362.933C424.603 365.292 421.41 368.677 419.13 373.089C416.849 377.425 415.709 382.598 415.709 388.608L415.709 408.007L470.44 408.007Z" fill="white"/>
<path d="M482.982 317.151L403.166 317.151L403.166 302.321L482.982 302.321L482.982 317.151Z" fill="white"/>
<path d="M484.123 231.881C484.123 238.111 483.096 243.861 481.044 249.111C478.992 254.361 476.141 258.921 472.492 262.801C468.768 266.681 464.435 269.681 459.494 271.811C454.477 273.941 449.004 275.011 443.074 275.011C437.145 275.011 431.71 273.941 426.769 271.811C421.752 269.681 417.419 266.681 413.77 262.801C410.046 258.921 407.157 254.361 405.105 249.111C403.052 243.861 402.026 238.151 402.026 231.991C402.026 225.751 403.052 220.051 405.105 214.871C407.157 209.621 410.046 205.061 413.77 201.181C417.419 197.301 421.752 194.301 426.769 192.171C431.71 190.041 437.145 188.971 443.074 188.971C449.004 188.971 454.477 190.041 459.494 192.171C464.511 194.301 468.844 197.301 472.492 201.181C476.141 205.061 478.992 209.621 481.044 214.871C483.096 220.051 484.123 225.711 484.123 231.881ZM471.124 231.991C471.124 227.961 470.44 224.231 469.072 220.811C467.703 217.381 465.765 214.421 463.256 211.911C460.672 209.401 457.707 207.461 454.363 206.091C450.942 204.641 447.179 203.921 443.074 203.921C438.97 203.921 435.245 204.641 431.9 206.091C428.479 207.461 425.515 209.401 423.006 211.911C420.422 214.421 418.445 217.381 417.077 220.811C415.709 224.231 415.025 227.961 415.025 231.991C415.025 236.021 415.709 239.751 417.077 243.171C418.445 246.521 420.422 249.491 423.006 252.071C425.515 254.581 428.479 256.561 431.9 258.011C435.245 259.381 438.97 260.061 443.074 260.061C447.103 260.061 450.828 259.381 454.249 258.011C457.669 256.561 460.672 254.581 463.256 252.071C465.765 249.561 467.703 246.601 469.072 243.171C470.44 239.751 471.124 236.021 471.124 231.991Z" fill="white"/>
<path d="M387.5 89.9414L387.5 0.881348L520.985 0.881342L520.985 89.9414L387.5 89.9414Z" fill="white"/>
<path d="M21.984 1115.48L21.984 1071.21L282.384 1071.21L282.384 1115.48L168.924 1115.48L168.924 1240.84L282.384 1240.84L282.384 1284.74L21.984 1284.74L21.984 1240.84L135.072 1240.84L135.072 1115.48L21.984 1115.48ZM168.18 843.036L203.892 843.036L203.892 983.28C222.492 981.048 235.264 974.352 242.208 963.192C249.152 951.784 252.624 934.424 252.624 911.112C252.624 901.44 251.756 891.52 250.02 881.352C248.036 870.936 245.556 862.008 242.58 854.568L274.944 854.568C278.664 863.248 281.516 873.168 283.5 884.328C285.236 895.488 286.104 907.392 286.104 920.04C286.104 953.52 277.92 979.436 261.552 997.788C245.184 1016.14 220.012 1025.32 186.036 1025.32C155.284 1025.32 131.104 1017.5 113.496 1001.88C95.64 986.256 86.712 962.572 86.712 930.828C86.712 901.564 94.276 879.616 109.404 864.984C124.532 850.352 144.124 843.036 168.18 843.036ZM175.248 983.28L175.248 881.724L161.856 881.724C148.464 881.724 138.172 885.444 130.98 892.884C123.54 900.076 119.82 912.228 119.82 929.34C119.82 949.924 124.284 964.06 133.212 971.748C141.892 979.436 155.904 983.28 175.248 983.28ZM148.464 625.007C151.936 612.359 158.26 602.315 167.436 594.875C176.364 587.435 189.508 583.715 206.868 583.715C232.412 583.715 251.384 590.535 263.784 604.175C276.184 617.815 282.384 637.903 282.384 664.439L282.384 796.127L21.984 796.127L21.984 670.019C21.984 643.979 28.06 624.883 40.212 612.731C52.116 600.331 69.228 594.131 91.548 594.131C105.436 594.131 117.216 596.983 126.888 602.687C136.312 608.143 143.504 615.583 148.464 625.007ZM55.092 752.231L133.212 752.231L133.212 675.971C133.212 661.339 129.74 650.799 122.796 644.351C115.852 637.903 106.552 634.679 94.896 634.679C81.504 634.679 71.584 638.027 65.136 644.723C58.44 651.171 55.092 663.199 55.092 680.807L55.092 752.231ZM250.02 673.739C250.02 658.115 246.672 646.707 239.976 639.515C233.28 632.075 221.748 628.355 205.38 628.355C191.988 628.355 181.944 631.951 175.248 639.143C168.552 646.335 165.204 659.355 165.204 678.203L165.204 752.231L250.02 752.231L250.02 673.739ZM168.18 365.322L203.892 365.322L203.892 505.566C222.492 503.334 235.264 496.638 242.208 485.478C249.152 474.07 252.624 456.71 252.624 433.398C252.624 423.726 251.756 413.806 250.02 403.638C248.036 393.222 245.556 384.294 242.58 376.854L274.944 376.854C278.664 385.534 281.516 395.454 283.5 406.614C285.236 417.774 286.104 429.678 286.104 442.326C286.104 475.806 277.92 501.722 261.552 520.074C245.184 538.426 220.012 547.602 186.036 547.602C155.284 547.602 131.104 539.79 113.496 524.166C95.64 508.542 86.7119 484.858 86.7119 453.114C86.7119 423.85 94.2759 401.902 109.404 387.27C124.532 372.638 144.124 365.322 168.18 365.322ZM175.248 505.566L175.248 404.01L161.856 404.01C148.464 404.01 138.172 407.73 130.98 415.17C123.54 422.362 119.82 434.514 119.82 451.626C119.82 472.21 124.284 486.346 133.212 494.034C141.892 501.722 155.904 505.566 175.248 505.566ZM133.212 198.256C133.212 188.832 133.832 180.152 135.072 172.216C136.312 164.28 137.924 157.46 139.908 151.756C141.892 145.804 144.496 140.472 147.72 135.76C150.696 131.048 153.796 127.204 157.02 124.228C159.996 121.004 163.344 118.276 167.064 116.044C170.784 113.564 174.256 111.828 177.48 110.836C180.704 109.596 184.176 108.604 187.896 107.86C191.368 107.116 194.344 106.62 196.824 106.372C199.056 106.124 201.412 106 203.892 106C231.42 106 251.384 112.82 263.784 126.46C276.184 140.1 282.384 160.188 282.384 186.724L282.384 318.412L21.984 318.412L21.9839 136.876L55.0919 136.876L55.0919 274.516L133.212 274.516L133.212 198.256ZM248.16 196.024C248.16 180.4 244.936 168.992 238.488 161.8C231.792 154.36 220.26 150.64 203.892 150.64C191.492 150.64 181.944 154.236 175.248 161.428C168.552 168.372 165.204 181.392 165.204 200.488L165.204 274.144L248.16 274.144L248.16 196.024Z" fill="white"/>
</svg>
